<?xml version="1.0" encoding="utf-8" standalone="no"?>
<!DOCTYPE svg PUBLIC "-//W3C//DTD SVG 1.1//EN"
  "http://www.w3.org/Graphics/SVG/1.1/DTD/svg11.dtd">
<!-- Created with matplotlib (https://matplotlib.org/) -->
<svg height="288pt" version="1.1" viewBox="0 0 432 288" width="432pt" xmlns="http://www.w3.org/2000/svg" xmlns:xlink="http://www.w3.org/1999/xlink">
 <metadata>
  <rdf:RDF xmlns:cc="http://creativecommons.org/ns#" xmlns:dc="http://purl.org/dc/elements/1.1/" xmlns:rdf="http://www.w3.org/1999/02/22-rdf-syntax-ns#">
   <cc:Work>
    <dc:type rdf:resource="http://purl.org/dc/dcmitype/StillImage"/>
    <dc:date>2022-04-11T11:04:48.101279</dc:date>
    <dc:format>image/svg+xml</dc:format>
    <dc:creator>
     <cc:Agent>
      <dc:title>Matplotlib v3.3.4, https://matplotlib.org/</dc:title>
     </cc:Agent>
    </dc:creator>
   </cc:Work>
  </rdf:RDF>
 </metadata>
 <defs>
  <style type="text/css">*{stroke-linecap:butt;stroke-linejoin:round;}</style>
 </defs>
 <g id="figure_1">
  <g id="patch_1">
   <path d="M 0 288 
L 432 288 
L 432 0 
L 0 0 
z
" style="fill:none;"/>
  </g>
  <g id="axes_1">
   <g id="patch_2">
    <path d="M 54 252 
L 388.8 252 
L 388.8 34.56 
L 54 34.56 
z
" style="fill:#ffffff;"/>
   </g>
   <g id="matplotlib.axis_1">
    <g id="xtick_1">
     <g id="line2d_1">
      <defs>
       <path d="M 0 0 
L 0 3.5 
" id="m3ca257131a" style="stroke:#000000;stroke-width:0.8;"/>
      </defs>
      <g>
       <use style="stroke:#000000;stroke-width:0.8;" x="69.218182" xlink:href="#m3ca257131a" y="252"/>
      </g>
     </g>
     <g id="text_1">
      <!-- 0.0 -->
      <g transform="translate(61.266619 266.598437)scale(0.1 -0.1)">
       <defs>
        <path d="M 31.78125 66.40625 
Q 24.171875 66.40625 20.328125 58.90625 
Q 16.5 51.421875 16.5 36.375 
Q 16.5 21.390625 20.328125 13.890625 
Q 24.171875 6.390625 31.78125 6.390625 
Q 39.453125 6.390625 43.28125 13.890625 
Q 47.125 21.390625 47.125 36.375 
Q 47.125 51.421875 43.28125 58.90625 
Q 39.453125 66.40625 31.78125 66.40625 
z
M 31.78125 74.21875 
Q 44.046875 74.21875 50.515625 64.515625 
Q 56.984375 54.828125 56.984375 36.375 
Q 56.984375 17.96875 50.515625 8.265625 
Q 44.046875 -1.421875 31.78125 -1.421875 
Q 19.53125 -1.421875 13.0625 8.265625 
Q 6.59375 17.96875 6.59375 36.375 
Q 6.59375 54.828125 13.0625 64.515625 
Q 19.53125 74.21875 31.78125 74.21875 
z
" id="DejaVuSans-48"/>
        <path d="M 10.6875 12.40625 
L 21 12.40625 
L 21 0 
L 10.6875 0 
z
" id="DejaVuSans-46"/>
       </defs>
       <use xlink:href="#DejaVuSans-48"/>
       <use x="63.623047" xlink:href="#DejaVuSans-46"/>
       <use x="95.410156" xlink:href="#DejaVuSans-48"/>
      </g>
     </g>
    </g>
    <g id="xtick_2">
     <g id="line2d_2">
      <g>
       <use style="stroke:#000000;stroke-width:0.8;" x="114.699898" xlink:href="#m3ca257131a" y="252"/>
      </g>
     </g>
     <g id="text_2">
      <!-- 2.5 -->
      <g transform="translate(106.748336 266.598437)scale(0.1 -0.1)">
       <defs>
        <path d="M 19.1875 8.296875 
L 53.609375 8.296875 
L 53.609375 0 
L 7.328125 0 
L 7.328125 8.296875 
Q 12.9375 14.109375 22.625 23.890625 
Q 32.328125 33.6875 34.8125 36.53125 
Q 39.546875 41.84375 41.421875 45.53125 
Q 43.3125 49.21875 43.3125 52.78125 
Q 43.3125 58.59375 39.234375 62.25 
Q 35.15625 65.921875 28.609375 65.921875 
Q 23.96875 65.921875 18.8125 64.3125 
Q 13.671875 62.703125 7.8125 59.421875 
L 7.8125 69.390625 
Q 13.765625 71.78125 18.9375 73 
Q 24.125 74.21875 28.421875 74.21875 
Q 39.75 74.21875 46.484375 68.546875 
Q 53.21875 62.890625 53.21875 53.421875 
Q 53.21875 48.921875 51.53125 44.890625 
Q 49.859375 40.875 45.40625 35.40625 
Q 44.1875 33.984375 37.640625 27.21875 
Q 31.109375 20.453125 19.1875 8.296875 
z
" id="DejaVuSans-50"/>
        <path d="M 10.796875 72.90625 
L 49.515625 72.90625 
L 49.515625 64.59375 
L 19.828125 64.59375 
L 19.828125 46.734375 
Q 21.96875 47.46875 24.109375 47.828125 
Q 26.265625 48.1875 28.421875 48.1875 
Q 40.625 48.1875 47.75 41.5 
Q 54.890625 34.8125 54.890625 23.390625 
Q 54.890625 11.625 47.5625 5.09375 
Q 40.234375 -1.421875 26.90625 -1.421875 
Q 22.3125 -1.421875 17.546875 -0.640625 
Q 12.796875 0.140625 7.71875 1.703125 
L 7.71875 11.625 
Q 12.109375 9.234375 16.796875 8.0625 
Q 21.484375 6.890625 26.703125 6.890625 
Q 35.15625 6.890625 40.078125 11.328125 
Q 45.015625 15.765625 45.015625 23.390625 
Q 45.015625 31 40.078125 35.4375 
Q 35.15625 39.890625 26.703125 39.890625 
Q 22.75 39.890625 18.8125 39.015625 
Q 14.890625 38.140625 10.796875 36.28125 
z
" id="DejaVuSans-53"/>
       </defs>
       <use xlink:href="#DejaVuSans-50"/>
       <use x="63.623047" xlink:href="#DejaVuSans-46"/>
       <use x="95.410156" xlink:href="#DejaVuSans-53"/>
      </g>
     </g>
    </g>
    <g id="xtick_3">
     <g id="line2d_3">
      <g>
       <use style="stroke:#000000;stroke-width:0.8;" x="160.181614" xlink:href="#m3ca257131a" y="252"/>
      </g>
     </g>
     <g id="text_3">
      <!-- 5.0 -->
      <g transform="translate(152.230052 266.598437)scale(0.1 -0.1)">
       <use xlink:href="#DejaVuSans-53"/>
       <use x="63.623047" xlink:href="#DejaVuSans-46"/>
       <use x="95.410156" xlink:href="#DejaVuSans-48"/>
      </g>
     </g>
    </g>
    <g id="xtick_4">
     <g id="line2d_4">
      <g>
       <use style="stroke:#000000;stroke-width:0.8;" x="205.663331" xlink:href="#m3ca257131a" y="252"/>
      </g>
     </g>
     <g id="text_4">
      <!-- 7.5 -->
      <g transform="translate(197.711768 266.598437)scale(0.1 -0.1)">
       <defs>
        <path d="M 8.203125 72.90625 
L 55.078125 72.90625 
L 55.078125 68.703125 
L 28.609375 0 
L 18.3125 0 
L 43.21875 64.59375 
L 8.203125 64.59375 
z
" id="DejaVuSans-55"/>
       </defs>
       <use xlink:href="#DejaVuSans-55"/>
       <use x="63.623047" xlink:href="#DejaVuSans-46"/>
       <use x="95.410156" xlink:href="#DejaVuSans-53"/>
      </g>
     </g>
    </g>
    <g id="xtick_5">
     <g id="line2d_5">
      <g>
       <use style="stroke:#000000;stroke-width:0.8;" x="251.145047" xlink:href="#m3ca257131a" y="252"/>
      </g>
     </g>
     <g id="text_5">
      <!-- 10.0 -->
      <g transform="translate(240.012235 266.598437)scale(0.1 -0.1)">
       <defs>
        <path d="M 12.40625 8.296875 
L 28.515625 8.296875 
L 28.515625 63.921875 
L 10.984375 60.40625 
L 10.984375 69.390625 
L 28.421875 72.90625 
L 38.28125 72.90625 
L 38.28125 8.296875 
L 54.390625 8.296875 
L 54.390625 0 
L 12.40625 0 
z
" id="DejaVuSans-49"/>
       </defs>
       <use xlink:href="#DejaVuSans-49"/>
       <use x="63.623047" xlink:href="#DejaVuSans-48"/>
       <use x="127.246094" xlink:href="#DejaVuSans-46"/>
       <use x="159.033203" xlink:href="#DejaVuSans-48"/>
      </g>
     </g>
    </g>
    <g id="xtick_6">
     <g id="line2d_6">
      <g>
       <use style="stroke:#000000;stroke-width:0.8;" x="296.626763" xlink:href="#m3ca257131a" y="252"/>
      </g>
     </g>
     <g id="text_6">
      <!-- 12.5 -->
      <g transform="translate(285.493951 266.598437)scale(0.1 -0.1)">
       <use xlink:href="#DejaVuSans-49"/>
       <use x="63.623047" xlink:href="#DejaVuSans-50"/>
       <use x="127.246094" xlink:href="#DejaVuSans-46"/>
       <use x="159.033203" xlink:href="#DejaVuSans-53"/>
      </g>
     </g>
    </g>
    <g id="xtick_7">
     <g id="line2d_7">
      <g>
       <use style="stroke:#000000;stroke-width:0.8;" x="342.10848" xlink:href="#m3ca257131a" y="252"/>
      </g>
     </g>
     <g id="text_7">
      <!-- 15.0 -->
      <g transform="translate(330.975667 266.598437)scale(0.1 -0.1)">
       <use xlink:href="#DejaVuSans-49"/>
       <use x="63.623047" xlink:href="#DejaVuSans-53"/>
       <use x="127.246094" xlink:href="#DejaVuSans-46"/>
       <use x="159.033203" xlink:href="#DejaVuSans-48"/>
      </g>
     </g>
    </g>
    <g id="xtick_8">
     <g id="line2d_8">
      <g>
       <use style="stroke:#000000;stroke-width:0.8;" x="387.590196" xlink:href="#m3ca257131a" y="252"/>
      </g>
     </g>
     <g id="text_8">
      <!-- 17.5 -->
      <g transform="translate(376.457383 266.598437)scale(0.1 -0.1)">
       <use xlink:href="#DejaVuSans-49"/>
       <use x="63.623047" xlink:href="#DejaVuSans-55"/>
       <use x="127.246094" xlink:href="#DejaVuSans-46"/>
       <use x="159.033203" xlink:href="#DejaVuSans-53"/>
      </g>
     </g>
    </g>
   </g>
   <g id="matplotlib.axis_2">
    <g id="ytick_1">
     <g id="line2d_9">
      <defs>
       <path d="M 0 0 
L -3.5 0 
" id="m6f9e9170e7" style="stroke:#000000;stroke-width:0.8;"/>
      </defs>
      <g>
       <use style="stroke:#000000;stroke-width:0.8;" x="54" xlink:href="#m6f9e9170e7" y="242.116364"/>
      </g>
     </g>
     <g id="text_9">
      <!-- 0.0 -->
      <g transform="translate(31.096875 245.915582)scale(0.1 -0.1)">
       <use xlink:href="#DejaVuSans-48"/>
       <use x="63.623047" xlink:href="#DejaVuSans-46"/>
       <use x="95.410156" xlink:href="#DejaVuSans-48"/>
      </g>
     </g>
    </g>
    <g id="ytick_2">
     <g id="line2d_10">
      <g>
       <use style="stroke:#000000;stroke-width:0.8;" x="54" xlink:href="#m6f9e9170e7" y="198.766219"/>
      </g>
     </g>
     <g id="text_10">
      <!-- 0.2 -->
      <g transform="translate(31.096875 202.565437)scale(0.1 -0.1)">
       <use xlink:href="#DejaVuSans-48"/>
       <use x="63.623047" xlink:href="#DejaVuSans-46"/>
       <use x="95.410156" xlink:href="#DejaVuSans-50"/>
      </g>
     </g>
    </g>
    <g id="ytick_3">
     <g id="line2d_11">
      <g>
       <use style="stroke:#000000;stroke-width:0.8;" x="54" xlink:href="#m6f9e9170e7" y="155.416074"/>
      </g>
     </g>
     <g id="text_11">
      <!-- 0.4 -->
      <g transform="translate(31.096875 159.215292)scale(0.1 -0.1)">
       <defs>
        <path d="M 37.796875 64.3125 
L 12.890625 25.390625 
L 37.796875 25.390625 
z
M 35.203125 72.90625 
L 47.609375 72.90625 
L 47.609375 25.390625 
L 58.015625 25.390625 
L 58.015625 17.1875 
L 47.609375 17.1875 
L 47.609375 0 
L 37.796875 0 
L 37.796875 17.1875 
L 4.890625 17.1875 
L 4.890625 26.703125 
z
" id="DejaVuSans-52"/>
       </defs>
       <use xlink:href="#DejaVuSans-48"/>
       <use x="63.623047" xlink:href="#DejaVuSans-46"/>
       <use x="95.410156" xlink:href="#DejaVuSans-52"/>
      </g>
     </g>
    </g>
    <g id="ytick_4">
     <g id="line2d_12">
      <g>
       <use style="stroke:#000000;stroke-width:0.8;" x="54" xlink:href="#m6f9e9170e7" y="112.065929"/>
      </g>
     </g>
     <g id="text_12">
      <!-- 0.6 -->
      <g transform="translate(31.096875 115.865147)scale(0.1 -0.1)">
       <defs>
        <path d="M 33.015625 40.375 
Q 26.375 40.375 22.484375 35.828125 
Q 18.609375 31.296875 18.609375 23.390625 
Q 18.609375 15.53125 22.484375 10.953125 
Q 26.375 6.390625 33.015625 6.390625 
Q 39.65625 6.390625 43.53125 10.953125 
Q 47.40625 15.53125 47.40625 23.390625 
Q 47.40625 31.296875 43.53125 35.828125 
Q 39.65625 40.375 33.015625 40.375 
z
M 52.59375 71.296875 
L 52.59375 62.3125 
Q 48.875 64.0625 45.09375 64.984375 
Q 41.3125 65.921875 37.59375 65.921875 
Q 27.828125 65.921875 22.671875 59.328125 
Q 17.53125 52.734375 16.796875 39.40625 
Q 19.671875 43.65625 24.015625 45.921875 
Q 28.375 48.1875 33.59375 48.1875 
Q 44.578125 48.1875 50.953125 41.515625 
Q 57.328125 34.859375 57.328125 23.390625 
Q 57.328125 12.15625 50.6875 5.359375 
Q 44.046875 -1.421875 33.015625 -1.421875 
Q 20.359375 -1.421875 13.671875 8.265625 
Q 6.984375 17.96875 6.984375 36.375 
Q 6.984375 53.65625 15.1875 63.9375 
Q 23.390625 74.21875 37.203125 74.21875 
Q 40.921875 74.21875 44.703125 73.484375 
Q 48.484375 72.75 52.59375 71.296875 
z
" id="DejaVuSans-54"/>
       </defs>
       <use xlink:href="#DejaVuSans-48"/>
       <use x="63.623047" xlink:href="#DejaVuSans-46"/>
       <use x="95.410156" xlink:href="#DejaVuSans-54"/>
      </g>
     </g>
    </g>
    <g id="ytick_5">
     <g id="line2d_13">
      <g>
       <use style="stroke:#000000;stroke-width:0.8;" x="54" xlink:href="#m6f9e9170e7" y="68.715784"/>
      </g>
     </g>
     <g id="text_13">
      <!-- 0.8 -->
      <g transform="translate(31.096875 72.515002)scale(0.1 -0.1)">
       <defs>
        <path d="M 31.78125 34.625 
Q 24.75 34.625 20.71875 30.859375 
Q 16.703125 27.09375 16.703125 20.515625 
Q 16.703125 13.921875 20.71875 10.15625 
Q 24.75 6.390625 31.78125 6.390625 
Q 38.8125 6.390625 42.859375 10.171875 
Q 46.921875 13.96875 46.921875 20.515625 
Q 46.921875 27.09375 42.890625 30.859375 
Q 38.875 34.625 31.78125 34.625 
z
M 21.921875 38.8125 
Q 15.578125 40.375 12.03125 44.71875 
Q 8.5 49.078125 8.5 55.328125 
Q 8.5 64.0625 14.71875 69.140625 
Q 20.953125 74.21875 31.78125 74.21875 
Q 42.671875 74.21875 48.875 69.140625 
Q 55.078125 64.0625 55.078125 55.328125 
Q 55.078125 49.078125 51.53125 44.71875 
Q 48 40.375 41.703125 38.8125 
Q 48.828125 37.15625 52.796875 32.3125 
Q 56.78125 27.484375 56.78125 20.515625 
Q 56.78125 9.90625 50.3125 4.234375 
Q 43.84375 -1.421875 31.78125 -1.421875 
Q 19.734375 -1.421875 13.25 4.234375 
Q 6.78125 9.90625 6.78125 20.515625 
Q 6.78125 27.484375 10.78125 32.3125 
Q 14.796875 37.15625 21.921875 38.8125 
z
M 18.3125 54.390625 
Q 18.3125 48.734375 21.84375 45.5625 
Q 25.390625 42.390625 31.78125 42.390625 
Q 38.140625 42.390625 41.71875 45.5625 
Q 45.3125 48.734375 45.3125 54.390625 
Q 45.3125 60.0625 41.71875 63.234375 
Q 38.140625 66.40625 31.78125 66.40625 
Q 25.390625 66.40625 21.84375 63.234375 
Q 18.3125 60.0625 18.3125 54.390625 
z
" id="DejaVuSans-56"/>
       </defs>
       <use xlink:href="#DejaVuSans-48"/>
       <use x="63.623047" xlink:href="#DejaVuSans-46"/>
       <use x="95.410156" xlink:href="#DejaVuSans-56"/>
      </g>
     </g>
    </g>
   </g>
   <g id="line2d_14">
    <path clip-path="url(#pdd1c1534d2)" d="M 69.218182 241.705271 
L 69.400109 242.116364 
L 69.491072 242.116364 
L 69.672999 241.351255 
L 70.036853 241.404901 
L 70.21878 240.696924 
L 70.49167 240.693439 
L 70.673597 240.005104 
L 70.76456 240.696592 
L 70.855524 239.981976 
L 71.03745 240.693439 
L 71.219377 239.981976 
L 71.401304 240.004585 
L 71.492268 239.303011 
L 71.583231 240.004439 
L 71.674195 239.270514 
L 71.856121 240.004214 
L 71.947085 240.00414 
L 72.129012 239.270514 
L 72.310939 239.981976 
L 72.401902 239.038628 
L 72.492866 239.270514 
L 72.583829 239.883508 
L 72.674792 239.270514 
L 72.765756 239.981976 
L 72.856719 239.883691 
L 72.947683 239.981976 
L 73.038646 239.181379 
L 73.129609 239.981976 
L 73.220573 239.270514 
L 73.4025 239.981976 
L 74.039243 239.981976 
L 74.130207 240.693439 
L 74.221171 239.981976 
L 74.403097 240.693439 
L 75.130805 240.693439 
L 75.312732 241.404901 
L 75.403695 240.578989 
L 75.585622 241.404901 
L 76.131403 241.404901 
L 76.222366 242.116364 
L 76.404293 241.404901 
L 76.950074 241.404901 
L 77.132 242.116364 
L 77.313927 241.404901 
L 77.404891 242.116364 
L 77.586818 241.404901 
L 77.677781 242.116364 
L 77.859708 241.404901 
L 78.041635 241.404901 
L 78.132598 242.116364 
L 78.314525 241.404901 
L 78.860305 241.404901 
L 79.133196 239.981976 
L 79.315123 239.981976 
L 79.406086 239.270514 
L 79.49705 240.001159 
L 79.76994 238.559051 
L 79.860903 239.270514 
L 80.042831 238.559051 
L 80.133794 238.559051 
L 80.406684 237.062039 
L 80.497648 237.847589 
L 80.770538 236.353099 
L 80.952464 236.353365 
L 81.043428 235.643625 
L 81.134391 236.353635 
L 81.225355 236.25482 
L 81.407282 236.255268 
L 81.680172 238.640696 
L 81.862099 239.649809 
L 82.044026 236.866668 
L 82.40788 228.079511 
L 83.590405 203.754095 
L 84.318111 194.421653 
L 84.772929 190.664316 
L 84.863892 191.437064 
L 85.045819 190.246368 
L 85.227746 191.095518 
L 85.318709 190.514855 
L 85.591599 192.150045 
L 85.682563 192.27746 
L 86.13738 196.654308 
L 87.228942 214.569822 
L 87.592795 220.937715 
L 87.865685 224.382515 
L 88.047612 224.945958 
L 88.320502 221.832318 
L 88.502428 219.189506 
L 91.14037 157.773779 
L 91.41326 154.152635 
L 91.777113 148.380155 
L 91.868077 147.855114 
L 92.23193 144.134657 
L 92.322893 144.295709 
L 92.50482 142.466098 
L 92.595783 142.608635 
L 92.77771 141.332393 
L 92.868673 141.574595 
L 93.0506 141.693467 
L 93.141566 140.37723 
L 93.323492 141.992478 
L 94.142162 148.611426 
L 94.687943 155.717554 
L 94.869869 157.84571 
L 94.960833 157.823226 
L 95.233723 162.732614 
L 95.324686 163.421905 
L 95.779505 171.84772 
L 96.052395 177.474817 
L 97.507808 209.386653 
L 97.780701 215.080789 
L 98.417444 228.560603 
L 98.508407 229.269895 
L 98.872261 236.313651 
L 99.054188 238.372057 
L 99.236114 240.883086 
L 99.327077 240.681894 
L 100.054786 233.528269 
L 100.509603 230.721526 
L 100.600566 230.721857 
L 100.69153 230.021501 
L 100.782493 230.732963 
L 100.96442 230.021501 
L 101.055383 230.021501 
L 101.146347 229.305093 
L 101.23731 230.021501 
L 101.5102 228.592614 
L 101.601163 229.303399 
L 101.692127 229.282925 
L 102.328872 229.243003 
L 102.419836 229.987785 
L 102.510799 229.241227 
L 102.692726 229.947523 
L 102.783689 229.985498 
L 102.965616 230.652688 
L 103.056579 230.651913 
L 103.329469 232.063309 
L 103.420432 231.295697 
L 103.602359 232.767154 
L 103.784286 234.174392 
L 103.875249 234.093296 
L 103.966213 234.092743 
L 104.511995 237.514472 
L 104.875848 239.398592 
L 104.966811 238.804038 
L 105.239701 239.922812 
L 105.421628 240.471994 
L 105.512591 239.960389 
L 105.603555 240.471994 
L 105.785482 240.33548 
L 105.876447 239.635475 
L 106.058374 239.958725 
L 106.149335 239.958403 
L 106.331262 239.441283 
L 106.422227 240.246877 
L 106.513188 239.440478 
L 106.604154 240.246302 
L 106.786081 239.439297 
L 106.877042 239.438919 
L 107.058968 240.244971 
L 107.149934 240.244737 
L 107.240895 240.699952 
L 107.331861 240.244306 
L 107.513787 240.699578 
L 107.604749 241.035109 
L 107.695714 240.699394 
L 107.877641 241.294179 
L 108.423421 241.290924 
L 108.514386 240.465484 
L 108.696313 241.29091 
L 108.87824 240.63104 
L 108.969201 240.631021 
L 109.060166 241.290853 
L 109.242093 240.63095 
L 109.514981 240.693439 
L 110.151726 240.693439 
L 110.333653 241.290476 
L 110.51558 241.404901 
L 110.697507 241.298984 
L 110.879433 242.116364 
L 110.970399 241.705271 
L 111.06136 242.116364 
L 111.152326 241.705271 
L 111.334252 242.116364 
L 111.425213 242.116364 
L 111.516179 241.705271 
L 111.698106 242.116364 
L 111.880032 242.116364 
L 111.970993 241.290224 
L 112.15292 242.116364 
L 113.608338 242.116364 
L 113.699299 241.705271 
L 113.790265 242.116364 
L 113.972191 241.705271 
L 114.154118 242.116364 
L 114.427006 242.116364 
L 114.517971 241.705271 
L 114.699898 242.116364 
L 117.246876 242.116364 
L 117.337837 241.294179 
L 117.519764 242.116364 
L 119.429996 242.116364 
L 119.520962 241.404901 
L 119.702889 242.116364 
L 119.884815 242.116364 
L 119.975776 241.404901 
L 120.157703 242.116364 
L 120.521557 242.116364 
L 120.612522 241.404901 
L 120.794449 242.116364 
L 122.340828 242.116364 
L 122.431789 241.404901 
L 122.613716 242.116364 
L 122.704681 242.116364 
L 122.795642 241.294179 
L 122.977569 242.116364 
L 129.526939 242.116364 
L 129.6179 241.404901 
L 129.799826 242.116364 
L 129.981753 240.693439 
L 130.072719 241.404901 
L 130.345607 239.981976 
L 130.527533 239.981976 
L 130.709464 239.246613 
L 130.800426 239.270514 
L 131.073318 237.847589 
L 131.255244 238.559051 
L 131.528132 237.125941 
L 131.710059 237.126236 
L 131.891986 236.424664 
L 131.982951 236.417378 
L 132.255839 234.997954 
L 132.346805 235.713201 
L 132.619693 234.28837 
L 132.710658 234.288591 
L 132.892585 233.578814 
L 132.98355 233.578814 
L 133.165477 232.868552 
L 133.256438 232.867351 
L 133.438365 232.155889 
L 133.52933 232.155889 
L 133.711257 231.444426 
L 133.893184 231.444426 
L 134.07511 230.732963 
L 134.257037 230.732963 
L 134.438964 230.021501 
L 134.529925 230.021501 
L 134.62089 229.310039 
L 134.802817 230.021501 
L 134.984744 229.310039 
L 135.71245 229.310039 
L 135.803416 230.021501 
L 135.894377 229.994393 
L 136.258231 229.993117 
L 136.440157 230.703545 
L 136.531123 230.703255 
L 136.804011 232.124313 
L 136.894976 231.366235 
L 137.167864 232.782923 
L 137.25883 232.782471 
L 137.349791 233.544407 
L 137.440756 233.49011 
L 137.531722 233.543999 
L 137.986536 236.314728 
L 138.077502 236.384026 
L 138.805209 240.99518 
L 138.89617 240.883086 
L 138.987135 240.471994 
L 139.078096 240.732319 
L 139.532915 238.919164 
L 139.623877 238.918576 
L 139.896769 237.63523 
L 140.078695 237.489427 
L 140.351588 236.177019 
L 140.442549 236.837771 
L 140.624475 236.040323 
L 140.715441 236.681638 
L 140.806402 236.501466 
L 140.897368 236.678696 
L 141.079294 236.496508 
L 141.170256 236.494849 
L 141.352182 237.090043 
L 141.534109 237.652308 
L 141.625075 237.650947 
L 142.079893 238.593561 
L 142.170859 238.592976 
L 142.261816 239.183408 
L 142.443747 238.827624 
L 142.716635 238.476676 
L 142.989523 237.676265 
L 143.080488 237.676729 
L 143.262419 237.171116 
L 143.353376 237.355056 
L 143.626272 236.87872 
L 143.717229 236.353208 
L 143.808195 236.879491 
L 143.990126 236.354389 
L 144.081083 236.62267 
L 144.172048 235.792915 
L 144.263014 236.623307 
L 144.717833 235.204779 
L 144.899755 235.42991 
L 145.263608 233.66968 
L 145.445539 233.815374 
L 145.900358 231.16242 
L 145.991315 231.248445 
L 146.173246 230.612001 
L 146.264212 230.666383 
L 146.719031 227.887113 
L 146.809987 227.901814 
L 147.355772 224.347962 
L 147.446737 224.350215 
L 147.901548 221.500211 
L 147.992513 221.504414 
L 148.538297 217.937342 
L 148.629254 217.944984 
L 149.266004 213.710822 
L 149.35697 213.723132 
L 149.629858 212.300483 
L 149.720823 212.316043 
L 149.902745 210.883667 
L 150.175633 209.514197 
L 150.44853 209.542725 
L 150.721418 208.154656 
L 150.812383 208.87162 
L 150.90334 208.808972 
L 150.994306 208.153071 
L 151.085271 208.183145 
L 151.267202 208.15005 
L 151.358159 208.808949 
L 151.449125 208.165779 
L 151.722012 209.569394 
L 151.812978 208.932422 
L 152.267797 211.668252 
L 152.358762 211.63335 
L 153.086469 216.469572 
L 153.359357 218.457956 
L 153.814176 223.674264 
L 154.723805 234.086758 
L 154.905736 234.877577 
L 155.269589 232.980059 
L 155.451512 231.783435 
L 155.997296 225.44853 
L 156.179227 224.373759 
L 156.270184 223.817269 
L 156.543081 221.370621 
L 156.725003 220.165841 
L 156.815968 218.742496 
L 156.906934 218.928788 
L 157.543675 214.993603 
L 157.634641 215.03623 
L 157.907529 213.680667 
L 158.180417 213.6755 
L 158.271382 212.961208 
L 158.362348 212.987476 
L 158.453313 213.670079 
L 158.54427 213.654578 
L 158.635235 212.94864 
L 158.726201 213.627504 
L 158.817166 213.60771 
L 158.999089 212.854027 
L 159.18102 213.500529 
L 159.362942 213.396881 
L 159.453908 214.011801 
L 159.544873 213.986474 
L 159.63583 213.909441 
L 159.908726 215.034381 
L 160.090649 214.805881 
L 160.27258 215.946119 
L 160.363545 215.913882 
L 161.000287 218.866868 
L 161.091252 218.657254 
L 161.455106 220.622308 
L 161.546062 220.589468 
L 161.818959 222.388162 
L 161.909916 222.101953 
L 162.182812 223.900551 
L 162.273769 224.002291 
L 162.546666 225.439894 
L 162.910519 227.310189 
L 163.274373 228.554096 
L 163.365338 228.587762 
L 163.456295 228.961407 
L 163.638226 228.633569 
L 163.820148 229.03735 
L 163.911114 228.783227 
L 164.002079 228.92429 
L 164.093045 229.29885 
L 164.365933 228.456378 
L 164.456898 228.795705 
L 164.638821 228.164071 
L 164.820751 228.775441 
L 164.911717 228.245651 
L 165.002674 228.808018 
L 165.27557 227.315978 
L 165.366527 227.316773 
L 165.548458 227.777187 
L 165.639424 227.360864 
L 165.730381 227.561339 
L 165.821346 226.91274 
L 166.003277 227.271426 
L 166.1852 227.592253 
L 166.276165 227.054496 
L 166.549053 227.414844 
L 166.640018 226.109995 
L 166.730984 226.898748 
L 166.821941 226.267204 
L 166.912906 226.386126 
L 167.003872 226.385328 
L 167.458691 223.660566 
L 167.549656 223.645314 
L 168.095432 218.225776 
L 168.36832 215.02406 
L 169.368923 196.877766 
L 170.09663 165.568342 
L 170.733371 134.905634 
L 171.824931 170.616806 
L 172.27975 156.941624 
L 173.280345 133.192273 
L 173.917095 126.335039 
L 174.00806 126.501192 
L 174.099017 127.344961 
L 174.189983 126.738776 
L 174.553836 128.742856 
L 175.463474 147.08666 
L 177.73756 209.565525 
L 178.556232 220.947339 
L 178.647189 221.31898 
L 179.011042 220.423041 
L 179.283939 218.198016 
L 179.647792 214.160857 
L 180.011645 208.938778 
L 180.193568 206.925088 
L 181.285128 191.576399 
L 181.376093 191.263908 
L 181.648981 187.991946 
L 182.1038 184.325562 
L 182.285731 183.964406 
L 182.376688 183.067655 
L 182.467654 183.532384 
L 182.558619 182.640516 
L 182.649585 183.797717 
L 182.740542 183.675681 
L 182.831507 184.161128 
L 183.377292 192.875559 
L 183.83211 207.558484 
L 184.377886 226.685222 
L 184.559817 228.787827 
L 184.741739 226.437901 
L 185.378489 208.322891 
L 185.651377 200.942573 
L 186.106196 191.549372 
L 186.742937 184.67393 
L 187.470644 181.186088 
L 187.652575 180.718629 
L 187.743532 181.08826 
L 188.016429 180.219128 
L 188.198351 178.959998 
L 188.289317 178.925893 
L 188.380282 178.556935 
L 188.65317 176.642105 
L 188.744135 176.418131 
L 188.926058 175.400888 
L 189.198946 174.856785 
L 189.289911 175.330985 
L 189.562799 177.43296 
L 189.835695 181.417804 
L 190.108583 188.372934 
L 190.381471 197.337187 
L 191.018221 217.03831 
L 191.109178 216.461723 
L 191.291109 211.310653 
L 191.745928 182.761767 
L 193.201342 90.491231 
L 193.747117 73.814762 
L 194.020014 69.814742 
L 194.110971 69.237609 
L 194.383867 69.953653 
L 194.929643 81.325843 
L 195.384462 103.196684 
L 196.112168 152.227923 
L 196.657953 190.16429 
L 196.930841 202.689628 
L 197.021806 204.319835 
L 197.112772 204.20049 
L 197.294694 199.618509 
L 197.658548 179.311583 
L 198.568185 117.700704 
L 199.295892 80.702201 
L 199.932633 66.195487 
L 200.023599 65.872601 
L 200.114564 66.204155 
L 200.387452 70.966305 
L 200.66034 81.55238 
L 201.479012 142.68115 
L 201.933831 171.172825 
L 202.115754 174.159217 
L 202.38865 164.872011 
L 202.84346 133.69754 
L 203.025392 122.309585 
L 203.207314 125.352221 
L 203.844064 144.041157 
L 204.116952 154.324881 
L 204.571771 145.88079 
L 204.662736 145.413047 
L 204.753693 143.760413 
L 204.844658 144.258928 
L 205.026589 142.869917 
L 205.390443 140.900271 
L 205.572365 142.353607 
L 206.11815 155.43967 
L 206.663925 181.400763 
L 207.118744 201.903973 
L 207.300675 204.594222 
L 207.391632 204.202023 
L 207.664529 197.071925 
L 208.119348 182.24304 
L 208.483201 175.916525 
L 208.574158 176.309589 
L 208.938011 181.917635 
L 209.39283 197.53798 
L 209.938614 215.538551 
L 210.029571 215.409925 
L 210.120537 214.875416 
L 210.393433 208.305672 
L 211.030175 187.844975 
L 211.484993 178.093701 
L 211.757881 174.482591 
L 212.394623 170.75356 
L 212.485588 170.861101 
L 212.576554 170.494772 
L 212.667519 170.556635 
L 212.849442 170.543489 
L 213.031373 170.638407 
L 213.122329 170.417948 
L 213.486183 170.981931 
L 213.577148 170.511431 
L 213.941002 171.189676 
L 214.031967 170.287201 
L 214.21389 171.009177 
L 214.304855 170.728373 
L 214.395821 170.778776 
L 214.486786 170.826614 
L 214.668709 171.500584 
L 214.759674 171.189051 
L 215.03257 172.008828 
L 215.123536 172.046868 
L 215.30545 172.48376 
L 215.396415 172.157798 
L 216.215087 176.580334 
L 216.306053 176.564645 
L 216.851829 180.65302 
L 217.48857 185.271561 
L 217.761467 187.791129 
L 219.489777 206.9996 
L 220.126518 215.106524 
L 222.127707 237.970064 
L 222.218673 238.201905 
L 222.400604 239.6612 
L 222.491569 239.472332 
L 222.582535 239.858874 
L 223.219276 235.431653 
L 223.310242 235.796461 
L 223.401207 235.796657 
L 223.583121 234.710101 
L 223.856017 233.565901 
L 223.946983 232.764046 
L 224.037948 232.938586 
L 224.128914 232.76724 
L 224.219879 233.260634 
L 224.310827 232.94357 
L 224.401793 233.049278 
L 224.765655 231.646262 
L 225.038534 232.942094 
L 225.220465 232.161979 
L 225.402396 231.56232 
L 225.493362 231.161615 
L 225.584327 231.297902 
L 225.766241 231.798119 
L 225.948172 231.016869 
L 226.039138 231.016869 
L 226.221068 230.194684 
L 226.403 230.593516 
L 226.584913 230.181163 
L 226.675879 230.194684 
L 226.85781 229.783591 
L 226.948775 230.194684 
L 227.039741 229.783591 
L 227.221672 230.172778 
L 227.403585 230.112463 
L 227.494551 229.706058 
L 227.676482 230.117965 
L 227.767448 230.019455 
L 227.949379 230.832761 
L 228.040327 230.287726 
L 228.313223 231.0929 
L 228.404189 231.289813 
L 228.58612 231.052776 
L 228.677085 231.686627 
L 228.858999 231.441226 
L 229.313827 232.939307 
L 229.404792 232.604404 
L 230.041533 234.71268 
L 230.132499 234.61002 
L 230.587309 235.750968 
L 230.860206 236.804313 
L 231.042137 237.248997 
L 231.133085 236.784265 
L 231.496947 237.130827 
L 231.678878 237.847589 
L 231.769844 237.046532 
L 232.042723 238.158512 
L 232.133688 238.159192 
L 232.224654 237.736757 
L 232.315619 238.30458 
L 232.588498 237.717889 
L 232.770429 237.804644 
L 233.043326 237.524567 
L 233.316223 236.772162 
L 233.589102 236.608959 
L 233.861998 235.621404 
L 234.043929 235.731663 
L 234.407774 234.675899 
L 234.680671 234.671107 
L 234.862584 234.304264 
L 235.044515 234.305075 
L 235.226446 234.661533 
L 235.590308 234.654885 
L 235.863188 235.334179 
L 235.954153 234.957469 
L 236.499929 236.187142 
L 236.68186 236.185594 
L 236.954756 236.977761 
L 237.045722 237.129595 
L 237.227636 238.005439 
L 237.318601 237.940721 
L 237.409567 237.940412 
L 237.682463 239.238717 
L 237.955342 239.1575 
L 238.137273 240.471994 
L 238.228239 240.471994 
L 238.319204 240.330493 
L 238.592101 241.298014 
L 239.046911 241.29126 
L 239.683652 239.543156 
L 239.774618 239.606193 
L 239.865583 239.258233 
L 239.956549 239.606628 
L 240.229428 238.896306 
L 240.320394 238.89661 
L 240.411359 238.523568 
L 240.502325 238.897232 
L 240.684256 238.184102 
L 240.775221 238.18453 
L 240.957135 237.754757 
L 241.139066 237.755559 
L 241.411962 236.714501 
L 241.502928 236.71475 
L 241.593893 236.134803 
L 241.684842 236.352404 
L 241.866773 235.726119 
L 241.957738 236.134934 
L 242.139669 235.528872 
L 242.3216 235.083096 
L 242.77641 235.081815 
L 242.958342 233.609862 
L 243.140273 234.572151 
L 243.413152 234.570925 
L 243.595083 233.606323 
L 243.686048 232.945453 
L 243.777014 233.086937 
L 243.867979 233.086337 
L 243.958927 233.211222 
L 244.049893 233.085033 
L 244.140859 232.40732 
L 244.231824 233.083677 
L 244.32279 230.921578 
L 244.413755 232.405138 
L 244.504721 231.597812 
L 244.595686 232.403509 
L 244.7776 231.720079 
L 244.868565 231.71918 
L 245.050496 230.913796 
L 245.232427 230.911724 
L 245.323393 231.029135 
L 245.414358 230.909442 
L 245.596272 230.225111 
L 245.778203 230.222727 
L 245.960134 229.534945 
L 246.0511 230.331993 
L 246.233013 229.530824 
L 246.323979 230.214763 
L 246.50591 228.838576 
L 246.687841 228.938834 
L 246.778806 229.522252 
L 246.960737 228.831068 
L 247.961323 228.918799 
L 248.143254 229.609259 
L 248.416151 229.790798 
L 248.507099 229.789754 
L 248.68903 230.397063 
L 248.779996 230.487631 
L 248.961927 231.185179 
L 249.052892 231.266823 
L 249.325771 232.744857 
L 249.416737 232.744297 
L 249.871565 235.685301 
L 250.053478 236.394831 
L 250.144444 236.394698 
L 250.872151 242.116364 
L 250.963116 241.705271 
L 251.145047 239.927333 
L 251.236012 239.981976 
L 251.599857 237.812515 
L 251.872754 236.394827 
L 251.96372 236.424664 
L 252.236615 234.97548 
L 252.327564 234.975664 
L 252.509495 234.265674 
L 252.691425 234.266102 
L 252.873358 232.845296 
L 253.05527 232.845787 
L 253.237202 232.155889 
L 253.328168 232.155889 
L 253.419133 231.444426 
L 253.510098 232.155889 
L 253.601063 231.444426 
L 253.782996 232.137157 
L 253.873943 232.155889 
L 254.783581 239.926806 
L 254.874546 239.56423 
L 255.511288 228.696963 
L 256.329959 217.43474 
L 256.784787 213.90415 
L 256.875736 213.770222 
L 257.057666 212.701856 
L 257.330564 212.282072 
L 257.421529 212.725249 
L 257.512495 212.365108 
L 257.603442 212.992005 
L 257.694409 212.831689 
L 257.967304 213.935235 
L 258.05827 215.016004 
L 258.149235 214.554647 
L 258.604045 216.644491 
L 258.695012 217.083126 
L 258.785977 216.860171 
L 258.876942 217.576521 
L 258.967908 217.284287 
L 259.058873 217.91194 
L 259.149822 217.859477 
L 259.240787 218.353807 
L 259.422718 218.244283 
L 259.513683 218.207167 
L 259.60465 218.355412 
L 259.695615 217.691881 
L 259.78658 217.715542 
L 259.877527 217.803605 
L 260.150425 217.114317 
L 260.24139 217.130837 
L 260.6962 215.568343 
L 260.787165 215.617178 
L 260.969098 215.206709 
L 261.060063 215.265479 
L 261.514873 213.784718 
L 261.605838 213.85085 
L 261.787769 212.718202 
L 261.878736 212.749865 
L 262.515476 210.638748 
L 264.516666 202.77722 
L 265.153425 199.181737 
L 265.244372 199.097241 
L 265.426302 197.594639 
L 265.608235 196.771406 
L 266.972682 186.696746 
L 267.518458 185.681606 
L 267.609423 186.090585 
L 267.700388 185.323701 
L 267.791355 186.26722 
L 267.88232 186.078333 
L 268.428096 188.393623 
L 268.973871 193.583109 
L 269.064838 193.957144 
L 269.428699 198.369663 
L 269.519664 198.731592 
L 269.792543 202.548348 
L 270.338337 208.772263 
L 270.793147 214.396315 
L 271.157009 217.805777 
L 271.429889 221.151774 
L 271.884715 225.366906 
L 272.157594 227.478569 
L 272.430492 228.283549 
L 272.521457 228.575681 
L 272.612423 227.614456 
L 272.703388 227.665752 
L 272.976267 224.66911 
L 273.613009 214.878168 
L 273.97687 207.751873 
L 274.249768 202.810032 
L 275.614216 169.382973 
L 276.069026 160.859788 
L 276.978664 152.239848 
L 277.160594 150.853924 
L 277.251559 151.593503 
L 277.433474 150.514727 
L 277.615404 151.520164 
L 277.797336 151.388024 
L 277.979267 151.889973 
L 278.525042 159.805435 
L 279.161784 179.614739 
L 279.707559 206.472303 
L 279.980455 216.86193 
L 280.071422 215.782077 
L 280.3443 198.327861 
L 281.981645 63.235258 
L 282.436473 47.668886 
L 282.618386 44.574095 
L 282.709353 44.443636 
L 282.891283 46.331603 
L 283.073214 48.605554 
L 283.618989 70.504781 
L 284.437662 133.07705 
L 285.52923 236.640419 
L 285.893075 206.439989 
L 286.620782 149.132268 
L 287.621385 95.487136 
L 288.258128 76.691708 
L 288.349093 76.172338 
L 288.531023 72.829038 
L 288.621989 74.982356 
L 289.53161 175.363379 
L 289.804506 201.550648 
L 290.077402 215.389632 
L 290.350281 230.56036 
L 290.532213 232.023757 
L 290.623179 230.614579 
L 290.896074 217.925896 
L 291.259919 199.753931 
L 291.532817 187.702167 
L 291.987626 168.12835 
L 292.98823 139.456157 
L 293.261109 136.48964 
L 293.44304 135.684608 
L 293.534005 135.325744 
L 293.62497 135.670401 
L 293.715937 135.620327 
L 293.806902 135.256943 
L 293.897868 135.521955 
L 294.170747 138.518637 
L 294.534608 141.870694 
L 294.898453 147.947287 
L 295.080385 149.99502 
L 295.353281 154.788885 
L 296.2629 170.948439 
L 296.353868 169.802033 
L 296.535798 177.085335 
L 296.626763 177.825135 
L 296.717729 174.720982 
L 296.808694 176.171791 
L 296.990626 175.092123 
L 297.445436 190.532854 
L 297.627367 185.767853 
L 297.718332 185.077847 
L 297.900246 190.218509 
L 298.173142 199.237743 
L 298.355074 201.365006 
L 298.446039 202.727692 
L 298.809884 216.038769 
L 298.900849 216.82595 
L 299.173745 227.322115 
L 299.446624 239.48892 
L 299.53759 239.356736 
L 299.810487 227.597489 
L 300.265297 205.385372 
L 300.538195 192.300874 
L 300.811072 176.80973 
L 300.993004 177.855146 
L 301.356865 174.065102 
L 301.447831 173.035598 
L 301.629745 173.693555 
L 301.811675 175.41966 
L 302.721313 149.626242 
L 302.994211 146.821425 
L 303.085158 146.498606 
L 303.176125 147.290631 
L 303.358055 146.853925 
L 304.267693 162.351726 
L 305.450211 199.705499 
L 305.723107 204.460331 
L 306.086969 206.981963 
L 306.177916 206.797499 
L 306.268882 207.069333 
L 306.905624 203.496382 
L 307.360452 198.631048 
L 307.451417 198.524586 
L 307.724297 195.895052 
L 307.997192 194.304565 
L 308.088158 194.190361 
L 308.270088 193.278465 
L 308.542968 192.817552 
L 308.633933 193.355684 
L 308.7249 193.207652 
L 308.815865 193.699924 
L 308.90683 192.73046 
L 309.088761 193.71142 
L 309.17971 193.527754 
L 309.270675 193.960643 
L 309.36164 193.850995 
L 309.725503 197.060355 
L 309.816468 196.825872 
L 309.907415 197.294227 
L 310.271278 201.344398 
L 310.362243 201.203846 
L 310.453209 202.323944 
L 310.544174 202.013476 
L 310.908019 205.404142 
L 311.271881 207.445257 
L 311.544761 208.891525 
L 311.635726 208.676494 
L 311.908624 210.685199 
L 311.999589 210.196362 
L 312.090554 210.858461 
L 312.181501 210.349422 
L 312.545364 212.110202 
L 312.636329 211.826309 
L 312.727295 211.538684 
L 312.81826 212.481279 
L 313.000174 211.873891 
L 313.182104 212.7539 
L 313.364037 211.792992 
L 313.455002 212.04044 
L 313.545967 211.132265 
L 313.727881 211.356326 
L 313.818847 211.344985 
L 314.000777 210.879095 
L 314.091742 210.866095 
L 314.273675 209.609643 
L 314.455587 210.129003 
L 314.546554 209.224446 
L 314.637519 209.410497 
L 314.728485 209.394237 
L 315.00138 207.763828 
L 315.092346 208.282103 
L 315.27426 207.361049 
L 315.365225 207.342469 
L 315.547157 206.954105 
L 315.638123 205.696546 
L 315.729088 206.563125 
L 315.911018 205.985588 
L 316.001967 206.50306 
L 316.183898 206.108757 
L 316.274863 206.08816 
L 316.365828 205.530476 
L 316.638726 206.005154 
L 316.729673 206.517172 
L 316.911605 205.942808 
L 317.00257 206.813917 
L 317.093536 206.793649 
L 317.184501 206.41565 
L 317.548346 207.587864 
L 317.639311 207.568902 
L 317.730276 207.013158 
L 317.821243 207.350558 
L 317.912208 208.230614 
L 318.003174 207.854331 
L 318.094139 209.092769 
L 318.185104 209.075728 
L 318.276053 209.059026 
L 318.457983 209.743322 
L 318.821846 212.205404 
L 319.094726 213.606886 
L 320.368225 224.224228 
L 320.641104 226.788233 
L 321.186897 231.016869 
L 321.368812 232.298816 
L 321.641707 233.783371 
L 321.732673 233.755108 
L 321.914603 234.4666 
L 322.096517 234.128543 
L 322.187482 234.365252 
L 322.278448 234.140235 
L 322.369415 234.317589 
L 322.46038 233.28517 
L 322.551345 233.485734 
L 322.64231 233.492425 
L 323.188086 230.802794 
L 323.370018 230.710207 
L 323.460983 230.600132 
L 323.642897 228.76321 
L 323.733863 228.763563 
L 323.824828 228.422896 
L 324.006758 227.525528 
L 324.188689 226.912979 
L 324.370603 225.759232 
L 324.461568 225.757609 
L 324.643501 224.582367 
L 324.825431 224.083524 
L 325.007362 222.873099 
L 325.09831 223.29116 
L 325.189276 223.016421 
L 325.371206 221.777586 
L 325.553139 221.490898 
L 325.644104 221.489778 
L 326.098914 220.30939 
L 326.280844 219.347338 
L 326.553742 219.346475 
L 326.644689 219.646376 
L 326.826619 219.345245 
L 327.372396 221.479036 
L 328.191069 228.071484 
L 328.645895 232.483557 
L 329.100705 236.745615 
L 329.191672 236.611132 
L 329.282637 236.942311 
L 329.373603 236.845203 
L 329.555533 236.030952 
L 329.919378 233.171087 
L 330.374188 228.316707 
L 331.283826 223.061483 
L 331.374791 223.057192 
L 331.465758 222.825806 
L 331.556723 223.04867 
L 331.829619 221.497728 
L 332.011533 221.488863 
L 332.102498 220.885821 
L 332.193464 221.479889 
L 332.375396 220.515921 
L 332.466361 220.511165 
L 332.557326 221.101943 
L 332.648274 220.501348 
L 332.830206 220.725405 
L 332.921171 220.356594 
L 333.012136 220.714941 
L 333.285032 219.968699 
L 333.375999 219.962694 
L 333.466946 219.589243 
L 333.557911 219.786917 
L 333.648877 219.207331 
L 333.739844 219.400212 
L 333.830809 218.822903 
L 334.01274 219.378931 
L 334.103705 219.176672 
L 334.194654 218.611658 
L 334.285619 218.780315 
L 334.649482 217.211784 
L 334.740447 217.739072 
L 335.104292 216.531602 
L 335.377187 215.842005 
L 335.468153 214.919965 
L 335.559118 215.3008 
L 335.922963 212.886632 
L 336.286825 211.124993 
L 336.377791 211.626555 
L 336.559705 210.509683 
L 336.832601 207.450573 
L 336.923568 208.340942 
L 337.014533 208.323714 
L 337.105498 208.306586 
L 337.196445 207.992109 
L 337.651273 203.962594 
L 337.833204 204.838621 
L 337.924171 204.417507 
L 338.106083 200.930347 
L 338.197048 201.828968 
L 338.288015 200.881961 
L 338.469946 201.760221 
L 338.560911 201.737315 
L 338.833791 199.531878 
L 338.924756 199.632425 
L 339.197653 200.489123 
L 339.288619 199.658754 
L 339.561498 200.632416 
L 339.652463 200.7202 
L 339.925359 203.495666 
L 340.198257 205.491203 
L 340.471134 208.907978 
L 340.653066 210.11746 
L 341.016911 212.335097 
L 341.198842 213.432517 
L 341.380772 214.489597 
L 341.471739 214.547468 
L 341.562704 214.991113 
L 341.926549 212.46552 
L 342.29041 208.624953 
L 342.74522 202.500169 
L 343.018118 199.867684 
L 343.381962 197.977502 
L 343.472927 196.949975 
L 343.563893 197.532175 
L 343.654858 196.906648 
L 343.745825 197.086448 
L 343.83679 198.073339 
L 343.927756 198.05325 
L 344.10967 199.811945 
L 344.382565 206.210786 
L 344.928341 227.771493 
L 345.019306 215.37067 
L 345.201238 229.310039 
L 346.383755 133.411259 
L 346.474721 130.548221 
L 346.565686 131.911388 
L 346.747616 128.287084 
L 347.111461 116.05683 
L 347.202426 115.308761 
L 347.293392 115.623808 
L 347.384359 116.645808 
L 347.566289 114.060573 
L 347.839169 109.629043 
L 347.930134 109.591855 
L 348.021099 109.916928 
L 348.112064 110.951322 
L 348.20303 110.900243 
L 348.384962 108.242628 
L 348.566874 105.958297 
L 348.657841 105.935238 
L 348.930737 110.805229 
L 349.021702 109.643027 
L 349.112668 110.266847 
L 349.203633 109.47209 
L 349.658445 116.33234 
L 349.74941 116.243582 
L 350.659048 135.359258 
L 351.841563 170.464391 
L 352.660236 198.043176 
L 353.296978 217.258813 
L 354.024684 230.287542 
L 354.206616 230.838841 
L 354.388547 230.738392 
L 354.661426 229.096728 
L 354.843357 227.727569 
L 355.480099 222.907055 
L 355.662029 220.831582 
L 356.116857 214.388521 
L 356.389735 212.368022 
L 356.753598 208.90851 
L 356.844563 208.803163 
L 357.117442 206.048894 
L 357.299373 203.837133 
L 357.39034 204.38507 
L 357.936115 200.611917 
L 358.02708 201.128321 
L 358.299976 199.063238 
L 358.390943 199.071767 
L 358.845753 198.418162 
L 359.027684 199.504622 
L 359.209598 199.047894 
L 359.300563 200.161874 
L 359.391528 199.885804 
L 360.119236 204.819284 
L 360.755976 211.436661 
L 360.846959 211.873622 
L 361.756579 220.6986 
L 361.847528 221.077147 
L 362.393321 225.835208 
L 363.211992 230.823132 
L 363.302976 231.099573 
L 363.393925 230.795172 
L 363.575855 231.13898 
L 363.666804 230.954166 
L 363.757786 231.363766 
L 364.030665 230.604977 
L 364.121614 230.54137 
L 364.394528 228.457113 
L 364.940287 225.542821 
L 365.213201 224.664511 
L 365.304148 225.291805 
L 365.395131 224.318769 
L 365.486078 224.941903 
L 365.66801 223.973678 
L 365.849941 225.204525 
L 366.031871 224.847581 
L 366.486683 226.244356 
L 366.57763 225.868781 
L 366.941493 227.503761 
L 367.032475 227.507204 
L 367.396303 228.985584 
L 367.487286 229.026263 
L 367.760164 229.836322 
L 367.942096 229.837949 
L 368.214976 230.515971 
L 368.396906 231.042761 
L 368.48789 230.795678 
L 368.669786 231.633694 
L 368.760769 231.778155 
L 368.851716 231.625062 
L 368.942699 231.86619 
L 369.033647 231.761597 
L 369.397509 232.213255 
L 369.488458 232.206524 
L 369.57944 232.595796 
L 369.670389 232.571671 
L 369.761372 232.565134 
L 370.03425 233.277204 
L 370.216182 233.281288 
L 370.307129 233.643871 
L 370.398113 233.600981 
L 370.670992 233.580021 
L 370.761975 233.978539 
L 370.852922 233.91376 
L 370.943871 233.907177 
L 371.216785 234.665601 
L 371.398716 234.655256 
L 371.671595 235.416246 
L 371.762544 235.413167 
L 371.944475 236.157941 
L 372.035458 236.105018 
L 372.217389 236.149565 
L 372.672198 237.632037 
L 372.854129 237.254872 
L 373.217957 238.36271 
L 373.308941 238.36188 
L 373.490871 239.118547 
L 373.581818 239.050875 
" style="fill:none;stroke:#1f77b4;stroke-linecap:square;stroke-width:1.5;"/>
   </g>
   <g id="line2d_15">
    <path clip-path="url(#pdd1c1534d2)" d="M 69.218182 241.726443 
L 69.400109 241.726443 
L 69.582036 241.245849 
L 69.672999 241.245846 
L 69.763962 242.116364 
L 69.854926 241.24584 
L 69.945889 242.116364 
L 70.036853 241.726443 
L 70.127816 242.116364 
L 70.21878 241.726443 
L 70.400706 242.116364 
L 70.49167 242.116364 
L 70.582633 241.384781 
L 70.673597 242.116364 
L 70.76456 241.384781 
L 71.03745 242.116364 
L 71.401304 242.116364 
L 71.492268 241.384781 
L 71.583231 242.116364 
L 71.765158 241.384781 
L 71.947085 242.116364 
L 72.038048 242.116364 
L 72.129012 241.726443 
L 72.310939 242.116364 
L 73.038646 242.116364 
L 73.129609 241.726443 
L 73.220573 242.116364 
L 73.4025 241.245756 
L 73.493463 242.116364 
L 73.67539 241.726443 
L 73.766353 241.726443 
L 73.857317 242.116364 
L 74.039243 241.726443 
L 74.130207 242.116364 
L 74.312134 241.331016 
L 74.494061 241.330978 
L 74.675988 241.726443 
L 74.766951 241.726443 
L 74.857915 242.116364 
L 75.039841 241.726443 
L 75.312732 241.726443 
L 75.403695 242.116364 
L 75.585622 241.726443 
L 75.767549 241.726443 
L 75.858513 242.116364 
L 75.949476 241.726443 
L 76.040439 242.116364 
L 76.131403 241.726443 
L 76.222366 242.116364 
L 76.313329 241.726443 
L 76.404293 242.116364 
L 76.495257 241.726443 
L 76.58622 242.116364 
L 76.677183 241.330708 
L 76.85911 242.116364 
L 76.950074 242.116364 
L 77.041037 241.330653 
L 77.132 241.384781 
L 77.313927 242.116364 
L 77.495854 241.330587 
L 77.768744 242.116364 
L 77.859708 241.384781 
L 78.041635 242.116364 
L 78.132598 242.116364 
L 78.223562 241.726443 
L 78.314525 242.116364 
L 78.405488 241.726443 
L 78.587415 242.116364 
L 78.678378 242.116364 
L 79.133196 240.653199 
L 79.22416 240.648693 
L 79.76994 237.02746 
L 79.860903 237.027322 
L 80.406684 233.337377 
L 80.497648 233.374181 
L 80.770538 230.449177 
L 81.953062 209.84251 
L 82.498843 198.110367 
L 82.589807 197.382229 
L 82.862697 191.463032 
L 83.22655 184.871845 
L 83.954258 174.592603 
L 84.409075 171.724108 
L 84.681966 171.728291 
L 85.227746 176.853458 
L 85.773527 186.251334 
L 86.13738 194.75842 
L 87.592795 227.656296 
L 87.683758 228.086324 
L 87.865685 226.814487 
L 88.593394 212.757859 
L 90.048808 182.41053 
L 91.41326 164.443569 
L 91.777113 162.864275 
L 92.050003 163.250423 
L 92.140967 162.653804 
L 92.413857 164.420008 
L 92.50482 164.514722 
L 93.869272 177.178767 
L 97.416845 231.129267 
L 97.598772 232.436502 
L 97.780701 232.654373 
L 98.144554 231.684791 
L 98.781297 227.457029 
L 99.781894 219.308717 
L 100.236713 213.844477 
L 101.328273 205.535943 
L 101.419237 205.993762 
L 101.601163 204.545699 
L 101.78309 203.632845 
L 101.965017 203.348015 
L 102.05598 203.352295 
L 102.328872 202.965769 
L 102.419836 202.870081 
L 102.510799 203.409667 
L 102.692726 202.469359 
L 102.783689 203.125402 
L 102.874652 202.910013 
L 102.965616 203.570863 
L 103.147542 203.385556 
L 103.875249 206.886451 
L 104.602958 213.222296 
L 105.330665 221.214875 
L 105.69452 224.869649 
L 105.967408 227.749861 
L 106.604154 233.877015 
L 106.968007 235.756184 
L 107.149934 236.765607 
L 107.786675 238.957283 
L 107.877641 238.754259 
L 107.968606 239.334554 
L 108.150533 239.099046 
L 108.423421 239.749718 
L 108.514386 239.004935 
L 108.696313 239.267401 
L 108.787274 238.695786 
L 108.969201 238.880402 
L 109.060166 238.879889 
L 109.242093 239.026759 
L 109.333054 238.33892 
L 109.42402 239.13017 
L 109.514981 239.025603 
L 109.787873 237.700059 
L 109.9698 238.458614 
L 110.151726 237.730251 
L 110.242692 238.458452 
L 110.424619 237.72687 
L 110.51558 238.458452 
L 110.697507 237.689658 
L 110.788472 237.68975 
L 110.970399 238.418099 
L 111.425213 238.338342 
L 111.60714 239.050647 
L 111.698106 239.050697 
L 111.789067 239.578626 
L 111.880032 238.911468 
L 112.15292 240.19824 
L 112.243886 240.19818 
L 112.334847 239.925283 
L 112.425812 240.706044 
L 112.516778 240.197898 
L 112.607739 240.556681 
L 112.698704 240.360574 
L 112.789666 240.556681 
L 112.880631 240.16676 
L 112.971592 240.556681 
L 113.062558 240.427908 
L 113.244485 240.556681 
L 113.335446 240.556681 
L 113.426411 240.16676 
L 113.517372 240.556681 
L 113.608338 240.359249 
L 113.699299 240.704447 
L 113.790265 239.922314 
L 114.063152 240.42237 
L 114.154118 239.748661 
L 114.245079 240.42237 
L 114.336045 239.048374 
L 114.427006 239.867094 
L 114.517971 239.048488 
L 114.608933 239.143935 
L 114.699898 239.143987 
L 114.790864 238.417526 
L 114.881825 239.144112 
L 115.063751 238.458452 
L 115.154717 238.458452 
L 115.336644 237.697374 
L 115.700497 237.728887 
L 115.791458 237.696076 
L 115.973385 236.973708 
L 116.246277 236.972704 
L 116.337238 236.201712 
L 116.428204 236.247798 
L 116.519165 236.247433 
L 116.701092 236.914693 
L 118.70229 236.902616 
L 118.793251 237.612078 
L 118.975178 236.901097 
L 119.066143 236.961381 
L 119.157104 237.682854 
L 119.24807 236.960735 
L 119.429996 237.6819 
L 119.611923 237.681286 
L 119.702889 236.959184 
L 119.884815 237.680406 
L 119.975776 236.991581 
L 120.066742 237.720554 
L 120.157703 237.679563 
L 120.33963 237.720132 
L 120.430595 236.990887 
L 120.612522 237.719733 
L 121.158302 237.72687 
L 121.249263 236.989737 
L 121.43119 237.72687 
L 121.613121 237.72687 
L 121.795048 236.995288 
L 121.976975 236.995288 
L 122.067936 237.701416 
L 122.249862 236.972532 
L 122.795642 236.995288 
L 122.977569 236.243808 
L 123.159496 236.973819 
L 123.341422 236.263706 
L 123.523349 236.263706 
L 123.614315 235.532124 
L 123.796241 236.263706 
L 123.887207 236.263706 
L 124.069133 235.532124 
L 124.79684 235.532124 
L 124.978767 234.800541 
L 125.160694 235.532124 
L 125.34262 234.800541 
L 125.706474 234.800541 
L 125.797435 234.068959 
L 125.888401 234.800541 
L 126.070327 234.068959 
L 126.616107 234.068959 
L 126.707073 233.328316 
L 126.889 234.058675 
L 127.070926 234.068959 
L 127.252853 233.337377 
L 127.798633 233.337377 
L 127.889594 232.594403 
L 127.98056 233.325079 
L 128.162486 232.605794 
L 128.708266 232.605794 
L 128.799232 231.874213 
L 128.890193 232.605794 
L 129.07212 231.874213 
L 129.163085 232.605794 
L 129.345012 231.874213 
L 129.435973 231.874213 
L 129.526939 232.605794 
L 129.799826 231.14263 
L 129.981753 231.874213 
L 130.072719 231.14263 
L 130.16368 231.874213 
L 130.345607 231.14263 
L 130.982352 231.147895 
L 131.164279 230.411048 
L 131.346206 230.411048 
L 131.437171 231.14263 
L 131.528132 230.411048 
L 131.710059 231.150146 
L 132.073912 231.14263 
L 132.164878 230.411048 
L 132.346805 231.14263 
L 132.892585 231.14263 
L 133.074511 231.874213 
L 133.256438 231.874213 
L 133.438365 232.617377 
L 133.711257 232.618095 
L 133.893184 233.337377 
L 134.166071 233.337377 
L 134.347998 234.081353 
L 134.62089 234.068959 
L 134.802817 234.800541 
L 135.075705 234.800541 
L 135.348597 236.263706 
L 135.621489 236.275022 
L 135.803416 237.005001 
L 135.985343 237.005232 
L 136.258231 238.462743 
L 136.440157 238.462903 
L 136.71305 239.912416 
L 136.985937 239.912539 
L 137.25883 241.310269 
L 137.349791 241.310279 
L 137.622683 242.116364 
L 137.713648 242.116364 
L 137.895575 241.384781 
L 138.077502 241.384781 
L 138.168463 241.265169 
L 138.35039 241.384781 
L 138.441355 240.653199 
L 138.532316 241.384781 
L 138.623282 240.653199 
L 138.714243 241.384781 
L 138.805209 240.653199 
L 138.89617 241.384781 
L 138.987135 241.2654 
L 139.169062 241.384781 
L 139.350989 241.384781 
L 139.44195 242.116364 
L 139.532915 241.384781 
L 139.623877 242.116364 
L 139.805808 241.309822 
L 139.987734 242.116364 
L 140.078695 241.726443 
L 140.169661 242.116364 
L 140.260622 241.384781 
L 140.442549 242.116364 
L 140.533514 242.116364 
L 140.624475 241.726443 
L 140.715441 242.116364 
L 140.806402 241.726443 
L 140.897368 242.116364 
L 140.988329 241.384781 
L 141.079294 242.116364 
L 141.170256 241.384781 
L 141.261221 242.116364 
L 141.352182 241.726443 
L 141.534109 242.116364 
L 141.625075 241.384781 
L 141.716036 242.116364 
L 141.807001 241.265519 
L 141.897962 241.384781 
L 142.079893 241.384781 
L 142.170859 241.265592 
L 142.261816 242.116364 
L 142.443747 241.265653 
L 142.534712 241.384781 
L 142.625669 241.726443 
L 142.8076 241.265724 
L 142.989523 242.116364 
L 143.171454 241.726443 
L 143.262419 242.116364 
L 143.353376 241.726443 
L 143.535307 242.116364 
L 143.626272 242.116364 
L 143.808195 241.726443 
L 143.89916 241.726443 
L 144.081083 242.116364 
L 144.172048 242.116364 
L 144.263014 241.309507 
L 144.353979 241.384781 
L 144.535902 242.116364 
L 144.626867 241.726443 
L 144.808798 242.116364 
L 144.899755 242.116364 
L 144.99072 241.726443 
L 145.081686 242.116364 
L 145.172651 241.384781 
L 145.354574 242.116364 
L 145.445539 241.726443 
L 145.627462 242.116364 
L 145.718427 242.116364 
L 145.809393 241.726443 
L 145.900358 242.116364 
L 145.991315 241.265907 
L 146.082281 242.116364 
L 146.173246 241.384781 
L 146.355168 242.116364 
L 146.5371 241.384781 
L 146.628065 242.116364 
L 146.900953 241.266099 
L 146.991919 241.384781 
L 147.173841 241.266205 
L 147.264806 241.266247 
L 147.446737 240.579014 
L 147.537694 240.579074 
L 147.62866 239.742431 
L 147.810591 240.416811 
L 147.901548 239.742852 
L 147.992513 240.417094 
L 148.174444 239.743335 
L 148.265401 240.417557 
L 148.356366 239.743673 
L 148.538297 240.418033 
L 148.629254 240.189882 
L 148.811185 239.56959 
L 148.993116 240.418811 
L 149.175039 240.419088 
L 149.266004 240.701436 
L 149.35697 240.419345 
L 149.538892 241.017088 
L 149.629858 241.336522 
L 149.81178 240.702032 
L 149.902745 241.336522 
L 150.084676 240.946601 
L 150.175633 240.771918 
L 150.44853 241.336522 
L 150.630452 241.077246 
L 151.085271 241.07712 
L 151.267202 241.306657 
L 151.358159 241.077052 
L 151.449125 241.726443 
L 151.54009 241.077015 
L 151.722012 241.726443 
L 151.903944 241.076931 
L 152.085866 241.726443 
L 152.176831 241.726443 
L 152.267797 240.581562 
L 152.358762 242.116364 
L 152.449719 241.268682 
L 152.540685 242.116364 
L 152.63165 241.726443 
L 152.722616 242.116364 
L 152.813573 241.726443 
L 152.995504 242.116364 
L 153.177426 242.116364 
L 153.268392 241.384781 
L 153.450322 242.116364 
L 153.632245 241.726443 
L 154.178029 241.726443 
L 154.268995 241.07691 
L 154.359952 241.726443 
L 154.450917 241.336522 
L 154.541883 241.726443 
L 154.723805 241.336522 
L 154.905736 241.077204 
L 155.087658 241.336522 
L 155.269589 240.946601 
L 155.542477 241.336522 
L 155.633443 240.772089 
L 155.815374 241.336522 
L 155.906331 240.946601 
L 155.997296 241.077798 
L 156.088262 240.946601 
L 156.270184 241.336522 
L 156.36115 240.946601 
L 156.543081 241.336522 
L 156.815968 241.336522 
L 156.906934 240.946601 
L 157.088856 241.336522 
L 157.45271 241.336522 
L 157.543675 241.726443 
L 157.725598 241.336522 
L 157.998494 241.336522 
L 158.180417 241.726443 
L 158.271382 241.336522 
L 158.453313 241.726443 
L 158.54427 241.726443 
L 158.635235 242.116364 
L 158.817166 241.726443 
L 158.999089 242.116364 
L 159.18102 241.726443 
L 159.271977 241.726443 
L 159.453908 242.116364 
L 159.544873 242.116364 
L 159.726795 241.726443 
L 159.908726 242.116364 
L 160.181614 242.116364 
L 160.27258 241.384781 
L 160.454502 242.116364 
L 161.637028 242.116364 
L 161.727993 241.726443 
L 161.909916 242.116364 
L 163.092442 242.116364 
L 163.183407 241.726443 
L 163.365338 242.116364 
L 163.456295 242.116364 
L 163.54726 241.726443 
L 163.729191 242.116364 
L 163.911114 241.726443 
L 164.547855 241.726443 
L 164.729786 242.116364 
L 165.366527 242.116364 
L 165.457493 241.726443 
L 165.639424 242.116364 
L 166.003277 242.116364 
L 166.094234 240.653199 
L 166.276165 242.116364 
L 166.730984 242.116364 
L 166.912906 241.336522 
L 167.094837 242.116364 
L 167.549656 242.116364 
L 167.640613 241.726443 
L 167.731579 242.116364 
L 168.004467 241.26706 
L 168.186398 241.726443 
L 168.277363 241.726443 
L 168.459285 241.266976 
L 168.550251 241.26696 
L 168.732173 242.116364 
L 168.823139 241.726443 
L 168.914104 242.116364 
L 169.096027 241.384781 
L 169.186992 241.384781 
L 169.277958 242.116364 
L 169.368923 241.384781 
L 169.459889 242.116364 
L 169.641811 241.384781 
L 169.732777 242.116364 
L 170.005664 241.384781 
L 170.187595 241.26707 
L 170.369518 241.267105 
L 170.551449 241.726443 
L 170.824337 241.726443 
L 170.915302 242.116364 
L 171.097225 241.308017 
L 171.18819 241.384781 
L 171.279156 241.726443 
L 171.552043 240.624681 
L 171.733975 241.384781 
L 171.915897 241.308074 
L 172.006862 241.384781 
L 172.097828 242.116364 
L 172.27975 241.384781 
L 172.461681 241.726443 
L 172.643604 241.384781 
L 172.825535 241.384781 
L 172.916492 240.653199 
L 173.098423 241.384781 
L 173.735164 241.307871 
L 173.826129 242.116364 
L 173.917095 240.653199 
L 174.00806 242.116364 
L 174.189983 241.726443 
L 174.462871 241.726443 
L 174.644802 241.267153 
L 174.735767 241.267127 
L 174.826724 241.726443 
L 175.008655 241.267063 
L 175.281543 242.116364 
L 175.736362 242.116364 
L 176.191181 240.556681 
L 176.464068 240.16676 
L 177.10081 236.640591 
L 178.556232 225.124587 
L 178.647189 225.121455 
L 178.920085 223.285411 
L 179.011042 223.052325 
L 179.192973 222.012858 
L 179.283939 222.007729 
L 179.556827 220.718712 
L 179.647792 220.71216 
L 179.829714 219.661753 
L 180.102602 219.639126 
L 180.193568 219.385293 
L 180.284533 218.584036 
L 180.466456 218.810944 
L 180.557421 218.004785 
L 180.739352 218.292293 
L 180.830318 218.283359 
L 181.01224 217.716895 
L 181.103206 217.707463 
L 181.194171 217.451314 
L 181.285128 218.236973 
L 181.467059 217.422288 
L 181.558025 218.208834 
L 181.648981 217.402957 
L 181.830912 218.180486 
L 182.1038 218.152174 
L 182.285731 218.930396 
L 182.376688 218.921229 
L 182.558619 219.699385 
L 182.649585 220.222822 
L 182.740542 219.938152 
L 182.922473 220.71981 
L 183.013438 220.711905 
L 183.104404 221.50114 
L 183.19536 220.952144 
L 183.377292 221.189515 
L 183.559214 222.782078 
L 184.377886 225.229758 
L 184.559817 226.264017 
L 184.650774 226.26209 
L 184.741739 227.080656 
L 184.832705 226.679875 
L 185.014627 227.501275 
L 185.105593 227.701482 
L 185.378489 229.544287 
L 185.469446 229.54413 
L 185.560412 229.729754 
L 185.924265 232.544726 
L 186.106196 232.694188 
L 186.379084 234.45882 
L 186.47005 234.565308 
L 186.651972 236.160763 
L 186.742937 235.494971 
L 186.92486 236.985145 
L 187.015825 236.995288 
L 187.288713 238.432555 
L 187.470644 238.365545 
L 187.56161 239.077069 
L 187.652575 238.259543 
L 187.834498 239.404259 
L 187.925463 238.778615 
L 188.107385 239.402917 
L 188.289317 239.155673 
L 188.380282 239.658239 
L 188.562204 238.879266 
L 188.926058 239.655726 
L 189.017023 239.655304 
L 189.198946 239.331184 
L 189.289911 239.330737 
L 189.471842 239.649835 
L 189.562799 238.990818 
L 189.74473 239.649097 
L 189.835695 239.386918 
L 189.926661 239.776839 
L 190.017618 239.273637 
L 190.199549 239.776839 
L 190.563402 239.683219 
L 190.654368 240.051946 
L 190.745325 239.68355 
L 190.927256 240.05239 
L 191.109178 240.006841 
L 191.291109 240.411804 
L 191.473031 240.007317 
L 191.745928 240.477447 
L 191.836885 240.477454 
L 192.018816 240.612558 
L 192.200747 240.612528 
L 192.291704 241.296852 
L 192.473635 240.653199 
L 192.5646 240.653199 
L 192.746523 241.278105 
L 192.837488 241.278134 
L 192.928454 241.726443 
L 193.01941 241.278186 
L 193.201342 241.726443 
L 193.383264 241.726443 
L 193.565195 241.296545 
L 194.110971 241.296562 
L 194.292902 242.116364 
L 194.383867 241.384781 
L 194.474833 242.116364 
L 194.56579 240.653199 
L 194.747721 241.384781 
L 195.293496 241.384781 
L 195.475427 240.653199 
L 195.748315 240.592415 
L 196.021203 240.592576 
L 196.203134 239.76886 
L 196.2941 239.769035 
L 196.385056 239.604162 
L 196.566987 238.767675 
L 196.657953 238.768198 
L 196.839875 237.73007 
L 196.930841 237.73108 
L 197.203729 236.264785 
L 197.294694 236.902313 
L 197.476625 236.072047 
L 197.658548 235.030467 
L 197.749513 235.385117 
L 197.840479 234.809359 
L 198.022401 235.659252 
L 198.113367 235.371184 
L 198.204332 235.073865 
L 198.295289 235.186778 
L 198.386254 234.133159 
L 198.47722 234.519913 
L 198.568185 234.493553 
L 199.204927 231.871782 
L 199.750711 227.221014 
L 199.841668 227.214024 
L 199.932633 226.84749 
L 200.205521 224.803028 
L 200.296487 224.446971 
L 200.478418 222.679647 
L 200.751306 221.200725 
L 200.933228 220.438297 
L 201.115159 219.339992 
L 202.115754 214.700961 
L 202.206719 214.683556 
L 202.38865 214.150472 
L 202.479607 214.133589 
L 202.570573 213.607053 
L 202.752504 213.864295 
L 202.934426 213.833041 
L 203.116357 213.560201 
L 203.298279 213.530661 
L 203.48021 214.032925 
L 203.571176 213.486094 
L 204.207917 218.787552 
L 204.298883 218.772918 
L 204.571771 220.827189 
L 204.844658 222.745084 
L 205.026589 222.230405 
L 205.117546 222.31042 
L 205.663331 219.730033 
L 205.936219 217.012739 
L 206.027184 217.056649 
L 206.11815 217.11894 
L 206.663925 213.849502 
L 207.027779 212.321474 
L 207.391632 209.759539 
L 207.937417 206.56576 
L 208.028382 206.685645 
L 208.30127 205.266589 
L 208.392236 205.39921 
L 208.665123 204.012006 
L 208.847054 203.3625 
L 209.119942 203.120968 
L 209.39283 201.389837 
L 209.938614 196.86708 
L 211.303062 173.706165 
L 212.030769 167.462071 
L 212.121735 167.511099 
L 212.303657 167.454349 
L 212.394623 167.500458 
L 212.485588 167.705056 
L 212.849442 171.697833 
L 213.122329 175.248211 
L 214.21389 196.065334 
L 214.668709 208.221876 
L 215.214484 218.913106 
L 215.396415 219.770557 
L 215.487381 219.524353 
L 215.669312 217.217083 
L 216.033156 208.583178 
L 216.760863 183.083852 
L 217.761467 152.520836 
L 218.489173 142.181346 
L 218.580139 142.148096 
L 218.671104 141.40144 
L 218.76207 142.07682 
L 218.853035 141.710869 
L 219.125915 144.446548 
L 219.489777 151.09301 
L 219.853621 162.008855 
L 220.308449 178.975215 
L 221.581931 230.325687 
L 221.672897 229.811181 
L 221.854828 224.821436 
L 222.6735 197.248827 
L 223.310242 204.937418 
L 223.674086 212.824591 
L 223.765052 213.049858 
L 224.037948 207.176591 
L 224.856621 192.785596 
L 224.947586 191.722656 
L 225.1295 187.81706 
L 225.311431 185.737055 
L 225.584327 182.243014 
L 226.312034 177.413428 
L 226.493965 177.425856 
L 226.766844 173.891621 
L 226.85781 174.604132 
L 227.130706 172.134248 
L 227.31262 171.062816 
L 227.585517 167.212262 
L 227.676482 166.513684 
L 227.767448 164.763275 
L 227.858413 165.11869 
L 228.949965 146.950851 
L 229.586706 136.8701 
L 230.405378 128.939149 
L 230.496344 128.276129 
L 230.678275 129.029699 
L 230.951171 130.130541 
L 231.405981 135.716794 
L 232.224654 156.785139 
L 233.225257 193.747396 
L 233.680067 210.293801 
L 234.407774 231.200268 
L 234.589705 236.022405 
L 234.680671 236.773693 
L 234.771636 236.731569 
L 234.95355 233.438798 
L 236.136084 213.173953 
L 236.590894 209.293655 
L 236.772825 209.741837 
L 236.954756 208.788089 
L 237.045722 209.385578 
L 237.13667 208.816039 
L 237.500532 210.56437 
L 237.591498 210.922702 
L 237.955342 213.826787 
L 238.046308 213.839497 
L 238.683049 220.767694 
L 238.774015 220.840436 
L 239.137877 224.008399 
L 239.228842 224.092192 
L 239.592687 225.93476 
L 239.774618 226.248457 
L 239.865583 226.053134 
L 239.956549 226.234559 
L 240.13848 226.840082 
L 240.320394 226.408261 
L 240.411359 226.050543 
L 240.775221 221.39095 
L 241.230031 210.456825 
L 241.411962 208.854874 
L 241.957738 196.481914 
L 242.230635 192.447026 
L 244.049893 122.087976 
L 244.504721 116.860445 
L 244.595686 117.243172 
L 244.686652 116.877872 
L 244.868565 117.538787 
L 245.141462 122.2246 
L 245.232427 121.265213 
L 245.414358 123.396347 
L 245.687238 127.25319 
L 246.142065 139.1163 
L 246.778806 166.105042 
L 247.506513 197.778179 
L 248.052289 216.114736 
L 248.416151 220.95459 
L 248.507099 221.376974 
L 249.780599 209.912448 
L 249.871565 210.245511 
L 250.235409 209.327767 
L 250.599271 210.950703 
L 250.781185 212.549974 
L 251.145047 216.494678 
L 251.236012 216.732999 
L 251.599857 221.540877 
L 251.872754 224.073739 
L 252.236615 224.911068 
L 252.691425 222.685687 
L 253.05527 217.938275 
L 253.601063 210.234268 
L 254.237806 200.233601 
L 254.510701 195.239743 
L 254.692615 193.010626 
L 255.238409 185.509209 
L 256.238994 177.490809 
L 256.875736 177.044145 
L 257.057666 178.381261 
L 257.148632 178.332744 
L 257.239597 178.28648 
L 257.330564 180.413874 
L 257.421529 179.643607 
L 257.967304 184.523872 
L 258.331167 188.769336 
L 258.604045 191.607624 
L 259.240787 200.085128 
L 259.513683 202.90967 
L 259.877527 207.013108 
L 259.968495 207.65993 
L 260.332356 211.901302 
L 260.6962 215.133796 
L 260.878131 217.236446 
L 260.969098 217.105467 
L 261.332959 221.049062 
L 261.423908 220.879579 
L 261.605838 222.197304 
L 262.333546 227.238745 
L 262.424511 227.235301 
L 262.879339 229.28452 
L 263.334149 231.293149 
L 263.425114 230.944287 
L 263.516079 231.635618 
L 263.607045 231.577118 
L 263.788959 231.935846 
L 264.152822 232.792139 
L 264.243787 232.790057 
L 264.516666 233.346592 
L 264.607631 233.08339 
L 264.880527 233.928027 
L 264.971492 233.538107 
L 265.153425 234.323295 
L 265.335337 234.324759 
L 265.517269 234.714303 
L 265.608235 234.714997 
L 265.790165 235.104268 
L 265.88113 235.104927 
L 266.244975 236.269531 
L 266.33594 236.181792 
L 266.426907 236.270665 
L 266.790752 237.431001 
L 266.972682 237.431889 
L 267.245578 238.217156 
L 267.427511 238.217156 
L 267.609423 238.996997 
L 267.791355 239.386918 
L 267.973286 239.386918 
L 268.155216 240.16676 
L 268.246165 240.16676 
L 268.33713 240.556681 
L 268.428096 240.343686 
L 269.064838 242.116364 
L 269.155803 241.261232 
L 269.246768 241.384781 
L 269.337734 242.116364 
L 269.610629 241.336522 
L 269.792543 241.336522 
L 269.974474 240.946601 
L 270.065441 240.946601 
L 270.247371 240.556681 
L 270.338337 240.556681 
L 270.520251 240.16676 
L 270.611216 240.16676 
L 270.702181 239.613523 
L 270.884112 239.776839 
L 270.975079 239.776839 
L 271.157009 239.386918 
L 271.247957 239.386918 
L 271.429889 238.996997 
L 271.520854 238.996997 
L 271.611819 239.386918 
L 271.79375 238.607077 
L 271.884715 238.996997 
L 272.066629 238.607077 
L 272.157594 238.607077 
L 272.24856 238.217156 
L 272.339527 238.607077 
L 272.430492 238.100793 
L 272.521457 238.217156 
L 272.612423 238.217156 
L 272.703388 237.827235 
L 272.794337 238.102112 
L 272.885302 237.718462 
L 272.976267 238.102798 
L 273.158198 237.71952 
L 273.703975 237.827235 
L 273.885905 237.33761 
L 274.067836 237.437315 
L 274.158801 236.953135 
L 274.249768 237.437315 
L 274.340715 237.047394 
L 274.43168 237.437315 
L 274.522646 236.954812 
L 274.613613 237.047394 
L 274.795543 236.956106 
L 274.977474 236.95698 
L 275.068423 236.571161 
L 275.250353 237.047394 
L 275.341318 236.572506 
L 275.432284 236.657473 
L 275.705181 236.5743 
L 275.796128 236.18801 
L 275.97806 236.961889 
L 276.159991 236.402265 
L 276.250956 236.576951 
L 276.432887 236.404783 
L 276.614801 236.406417 
L 276.705766 236.783206 
L 276.887698 236.408817 
L 277.251559 236.411982 
L 277.342508 236.788698 
L 277.433474 236.413538 
L 277.524439 236.790246 
L 277.615404 236.521942 
L 277.706369 236.79178 
L 277.797336 236.163494 
L 277.888302 236.41739 
L 278.070214 236.166831 
L 278.161181 236.16797 
L 278.252146 236.420507 
L 278.343112 235.806174 
L 278.525042 236.422873 
L 278.79794 235.811908 
L 278.888887 236.42606 
L 279.161784 235.816573 
L 279.252749 235.817765 
L 279.343715 235.452082 
L 279.525645 235.821321 
L 279.707559 235.823705 
L 279.88949 235.459333 
L 279.980455 235.827383 
L 280.162387 235.4631 
L 280.253353 235.464363 
L 280.3443 234.822436 
L 280.526232 235.468251 
L 280.708163 235.101688 
L 280.799128 235.47226 
L 280.981058 235.105805 
L 281.072025 235.107197 
L 281.162972 235.310851 
L 281.253938 235.110023 
L 281.43587 235.313776 
L 281.708766 235.316702 
L 281.799731 235.697908 
L 281.89068 235.489055 
L 282.163576 236.080687 
L 282.254541 235.702628 
L 282.436473 236.083392 
L 282.527439 236.084276 
L 282.709353 236.60798 
L 283.073214 237.381346 
L 283.164179 237.21626 
L 283.346111 237.955267 
L 283.528024 238.318927 
L 283.709956 238.915327 
L 284.437662 242.116364 
L 284.619594 240.740068 
L 284.710559 240.946601 
L 284.983438 239.293827 
L 285.711144 233.895032 
L 285.893075 232.727795 
L 286.256937 229.222365 
L 287.07561 221.41854 
L 288.16716 207.023495 
L 288.712937 197.501258 
L 289.622575 183.557256 
L 290.441246 171.936277 
L 290.714144 167.314561 
L 290.896074 166.475418 
L 291.077988 163.759375 
L 291.532817 155.787712 
L 291.623782 155.289271 
L 292.260522 147.732198 
L 292.715332 145.553057 
L 292.806299 145.448414 
L 293.079195 148.417577 
L 293.352074 151.787435 
L 294.079782 169.738664 
L 294.625573 182.264229 
L 295.080385 187.87722 
L 295.262315 187.496418 
L 295.62616 182.692007 
L 295.899056 176.735187 
L 295.990023 174.440346 
L 296.2629 141.061593 
L 296.444833 157.003633 
L 296.535798 153.976063 
L 296.717729 166.45667 
L 297.263504 125.957016 
L 297.536401 118.492177 
L 297.718332 114.521449 
L 297.809281 115.495113 
L 297.900246 115.400819 
L 297.991211 115.012822 
L 298.173142 108.996028 
L 298.355074 102.904692 
L 298.718919 111.352097 
L 298.900849 112.436082 
L 298.991814 112.4351 
L 299.992418 138.238752 
L 301.174935 178.127253 
L 301.629745 194.673049 
L 301.811675 199.042151 
L 302.357452 214.135887 
L 302.630348 216.969148 
L 302.721313 216.810521 
L 302.994211 210.097669 
L 303.358055 194.413761 
L 304.813469 117.87688 
L 305.086366 112.08766 
L 305.177331 111.697993 
L 305.359244 109.629155 
L 305.723107 112.908986 
L 306.086969 121.187562 
L 306.541779 144.006059 
L 307.724297 224.943652 
L 307.815262 223.537582 
L 308.179123 202.41833 
L 308.633933 178.662263 
L 308.997796 162.321776 
L 310.271278 95.746666 
L 310.635141 82.786937 
L 311.089951 70.153433 
L 311.180916 69.493586 
L 311.362847 67.239011 
L 311.453796 66.801354 
L 311.544761 65.207656 
L 311.635726 66.01835 
L 311.726691 65.377214 
L 312.272468 70.847026 
L 312.545364 76.833347 
L 313.273071 101.889544 
L 315.183313 185.203701 
L 315.45619 194.047841 
L 316.092932 212.500553 
L 316.638726 224.917194 
L 316.911605 229.3155 
L 317.184501 231.057765 
L 317.366431 231.455911 
L 317.912208 227.615568 
L 318.276053 222.898634 
L 319.185691 215.397089 
L 319.276656 215.601752 
L 319.458587 214.82191 
L 319.549552 213.832075 
L 319.640517 214.042069 
L 319.822431 213.262228 
L 319.913397 213.471983 
L 320.004362 213.083667 
L 320.095329 213.292299 
L 320.186294 212.30706 
L 320.277259 212.909026 
L 320.368225 212.729164 
L 320.45919 212.13607 
L 320.550139 212.349732 
L 320.641104 212.950808 
L 320.732069 212.568428 
L 320.914 213.178313 
L 321.004967 212.798265 
L 321.186897 214.001996 
L 321.277844 214.212711 
L 322.00557 218.741362 
L 322.187482 221.657733 
L 322.369415 223.095186 
L 322.64231 226.061783 
L 322.824225 228.47651 
L 323.188086 230.971467 
L 323.279053 230.848129 
L 323.370018 230.755632 
L 323.55193 228.911993 
L 323.915793 221.905457 
L 325.735069 174.522285 
L 325.826016 173.737333 
L 325.916983 174.784815 
L 326.007948 173.995057 
L 326.462775 178.076234 
L 326.553742 179.105713 
L 327.281447 204.83311 
L 327.91819 229.418115 
L 328.009155 229.122765 
L 328.191069 223.735329 
L 329.464568 163.830552 
L 330.283241 142.996271 
L 330.55612 140.791862 
L 330.647085 141.13524 
L 330.738051 140.754621 
L 330.829016 139.649421 
L 331.465758 148.156438 
L 331.920568 162.795104 
L 333.648877 236.450881 
L 333.739844 237.418117 
L 333.921774 230.796892 
L 335.104292 176.273963 
L 335.377187 180.791679 
L 335.468153 181.530594 
L 335.650085 180.814583 
L 336.104895 193.923575 
L 336.19586 193.681728 
L 336.46874 184.241674 
L 337.651273 156.160534 
L 337.924171 153.493241 
L 338.106083 153.560952 
L 338.197048 154.022636 
L 338.288015 153.44337 
L 338.651876 157.408846 
L 339.197653 170.672752 
L 340.10729 214.933225 
L 340.471134 236.104365 
L 340.562101 238.195546 
L 340.834997 223.584857 
L 342.563289 130.896557 
L 342.836187 121.840965 
L 343.109083 114.138449 
L 343.381962 107.782463 
L 343.745825 103.768736 
L 343.83679 103.988889 
L 343.927756 103.751104 
L 344.018703 105.175623 
L 344.10967 104.721631 
L 344.200635 106.133453 
L 344.473531 118.804331 
L 344.837375 148.239636 
L 345.474134 216.084689 
L 345.565083 217.112392 
L 346.656651 145.105399 
L 346.838582 143.027064 
L 347.111461 134.142581 
L 347.475324 136.415353 
L 347.839169 132.702214 
L 347.930134 133.20431 
L 348.748807 145.478131 
L 348.930737 147.97902 
L 349.203633 150.583444 
L 351.022892 206.987696 
L 351.659633 227.689296 
L 351.93253 231.388223 
L 352.023496 230.787832 
L 352.38734 223.73737 
L 353.206013 201.910887 
L 354.297581 177.752188 
L 354.388547 176.83214 
L 354.661426 171.336074 
L 354.752391 171.152886 
L 355.207219 165.502239 
L 355.662029 162.08367 
L 355.752994 162.093845 
L 355.84396 161.026736 
L 355.934925 161.040339 
L 356.02589 160.322864 
L 356.207804 161.248478 
L 356.480702 159.660685 
L 356.571667 160.405699 
L 356.662632 159.688505 
L 356.753598 160.433602 
L 356.844563 160.291062 
L 357.026477 160.322438 
L 357.117442 160.185049 
L 357.299373 161.830784 
L 357.39034 161.697823 
L 358.48189 181.008013 
L 359.573459 211.553491 
L 360.392115 234.93241 
L 360.574046 237.437315 
L 360.665029 237.275184 
L 361.301769 227.666017 
L 362.393321 213.235443 
L 362.484303 212.514777 
L 362.757182 208.456573 
L 363.121045 205.752113 
L 363.211992 206.418188 
L 363.302976 205.735747 
L 363.393925 205.826342 
L 363.757786 207.844963 
L 363.848735 207.94009 
L 365.122217 219.865659 
L 365.577062 224.284432 
L 366.031871 227.808356 
L 366.304751 228.927772 
L 366.57763 227.597257 
L 366.668614 227.862808 
L 367.032475 224.394303 
L 367.123424 224.387969 
L 367.396303 222.499201 
L 367.487286 222.778478 
L 367.578233 222.620649 
L 367.669217 222.176685 
L 367.760164 221.007803 
L 367.851147 221.256961 
L 368.033043 220.298595 
L 368.124027 220.530327 
L 368.214976 220.249548 
L 368.305957 220.464706 
L 368.48789 219.217647 
L 368.578837 219.419751 
L 368.669786 219.805704 
L 368.760769 219.075399 
L 368.851716 219.259463 
L 368.942699 218.705732 
L 369.12463 219.042251 
L 369.488458 217.44724 
L 369.761372 217.699491 
L 369.852319 217.09131 
L 369.943303 217.202635 
L 370.125233 217.297244 
L 370.307129 216.555307 
L 370.398113 216.74935 
L 370.489061 216.639444 
L 370.670992 216.804328 
L 371.125802 216.818536 
L 371.307732 217.637803 
L 371.489665 217.54345 
L 371.580646 218.296604 
L 371.671595 218.28024 
L 371.853526 218.247307 
L 372.308336 221.032849 
L 372.399319 221.01504 
L 372.854129 223.658801 
L 372.945078 223.641245 
L 373.399888 226.204256 
L 373.581818 226.818392 
L 373.581818 226.818392 
" style="fill:none;stroke:#ff7f0e;stroke-linecap:square;stroke-width:1.5;"/>
   </g>
   <g id="patch_3">
    <path d="M 54 252 
L 54 34.56 
" style="fill:none;stroke:#000000;stroke-linecap:square;stroke-linejoin:miter;stroke-width:0.8;"/>
   </g>
   <g id="patch_4">
    <path d="M 388.8 252 
L 388.8 34.56 
" style="fill:none;stroke:#000000;stroke-linecap:square;stroke-linejoin:miter;stroke-width:0.8;"/>
   </g>
   <g id="patch_5">
    <path d="M 54 252 
L 388.8 252 
" style="fill:none;stroke:#000000;stroke-linecap:square;stroke-linejoin:miter;stroke-width:0.8;"/>
   </g>
   <g id="patch_6">
    <path d="M 54 34.56 
L 388.8 34.56 
" style="fill:none;stroke:#000000;stroke-linecap:square;stroke-linejoin:miter;stroke-width:0.8;"/>
   </g>
   <g id="text_14">
    <!-- Arms speed -->
    <g transform="translate(185.929688 28.56)scale(0.12 -0.12)">
     <defs>
      <path d="M 34.1875 63.1875 
L 20.796875 26.90625 
L 47.609375 26.90625 
z
M 28.609375 72.90625 
L 39.796875 72.90625 
L 67.578125 0 
L 57.328125 0 
L 50.6875 18.703125 
L 17.828125 18.703125 
L 11.1875 0 
L 0.78125 0 
z
" id="DejaVuSans-65"/>
      <path d="M 41.109375 46.296875 
Q 39.59375 47.171875 37.8125 47.578125 
Q 36.03125 48 33.890625 48 
Q 26.265625 48 22.1875 43.046875 
Q 18.109375 38.09375 18.109375 28.8125 
L 18.109375 0 
L 9.078125 0 
L 9.078125 54.6875 
L 18.109375 54.6875 
L 18.109375 46.1875 
Q 20.953125 51.171875 25.484375 53.578125 
Q 30.03125 56 36.53125 56 
Q 37.453125 56 38.578125 55.875 
Q 39.703125 55.765625 41.0625 55.515625 
z
" id="DejaVuSans-114"/>
      <path d="M 52 44.1875 
Q 55.375 50.25 60.0625 53.125 
Q 64.75 56 71.09375 56 
Q 79.640625 56 84.28125 50.015625 
Q 88.921875 44.046875 88.921875 33.015625 
L 88.921875 0 
L 79.890625 0 
L 79.890625 32.71875 
Q 79.890625 40.578125 77.09375 44.375 
Q 74.3125 48.1875 68.609375 48.1875 
Q 61.625 48.1875 57.5625 43.546875 
Q 53.515625 38.921875 53.515625 30.90625 
L 53.515625 0 
L 44.484375 0 
L 44.484375 32.71875 
Q 44.484375 40.625 41.703125 44.40625 
Q 38.921875 48.1875 33.109375 48.1875 
Q 26.21875 48.1875 22.15625 43.53125 
Q 18.109375 38.875 18.109375 30.90625 
L 18.109375 0 
L 9.078125 0 
L 9.078125 54.6875 
L 18.109375 54.6875 
L 18.109375 46.1875 
Q 21.1875 51.21875 25.484375 53.609375 
Q 29.78125 56 35.6875 56 
Q 41.65625 56 45.828125 52.96875 
Q 50 49.953125 52 44.1875 
z
" id="DejaVuSans-109"/>
      <path d="M 44.28125 53.078125 
L 44.28125 44.578125 
Q 40.484375 46.53125 36.375 47.5 
Q 32.28125 48.484375 27.875 48.484375 
Q 21.1875 48.484375 17.84375 46.4375 
Q 14.5 44.390625 14.5 40.28125 
Q 14.5 37.15625 16.890625 35.375 
Q 19.28125 33.59375 26.515625 31.984375 
L 29.59375 31.296875 
Q 39.15625 29.25 43.1875 25.515625 
Q 47.21875 21.78125 47.21875 15.09375 
Q 47.21875 7.46875 41.1875 3.015625 
Q 35.15625 -1.421875 24.609375 -1.421875 
Q 20.21875 -1.421875 15.453125 -0.5625 
Q 10.6875 0.296875 5.421875 2 
L 5.421875 11.28125 
Q 10.40625 8.6875 15.234375 7.390625 
Q 20.0625 6.109375 24.8125 6.109375 
Q 31.15625 6.109375 34.5625 8.28125 
Q 37.984375 10.453125 37.984375 14.40625 
Q 37.984375 18.0625 35.515625 20.015625 
Q 33.0625 21.96875 24.703125 23.78125 
L 21.578125 24.515625 
Q 13.234375 26.265625 9.515625 29.90625 
Q 5.8125 33.546875 5.8125 39.890625 
Q 5.8125 47.609375 11.28125 51.796875 
Q 16.75 56 26.8125 56 
Q 31.78125 56 36.171875 55.265625 
Q 40.578125 54.546875 44.28125 53.078125 
z
" id="DejaVuSans-115"/>
      <path id="DejaVuSans-32"/>
      <path d="M 18.109375 8.203125 
L 18.109375 -20.796875 
L 9.078125 -20.796875 
L 9.078125 54.6875 
L 18.109375 54.6875 
L 18.109375 46.390625 
Q 20.953125 51.265625 25.265625 53.625 
Q 29.59375 56 35.59375 56 
Q 45.5625 56 51.78125 48.09375 
Q 58.015625 40.1875 58.015625 27.296875 
Q 58.015625 14.40625 51.78125 6.484375 
Q 45.5625 -1.421875 35.59375 -1.421875 
Q 29.59375 -1.421875 25.265625 0.953125 
Q 20.953125 3.328125 18.109375 8.203125 
z
M 48.6875 27.296875 
Q 48.6875 37.203125 44.609375 42.84375 
Q 40.53125 48.484375 33.40625 48.484375 
Q 26.265625 48.484375 22.1875 42.84375 
Q 18.109375 37.203125 18.109375 27.296875 
Q 18.109375 17.390625 22.1875 11.75 
Q 26.265625 6.109375 33.40625 6.109375 
Q 40.53125 6.109375 44.609375 11.75 
Q 48.6875 17.390625 48.6875 27.296875 
z
" id="DejaVuSans-112"/>
      <path d="M 56.203125 29.59375 
L 56.203125 25.203125 
L 14.890625 25.203125 
Q 15.484375 15.921875 20.484375 11.0625 
Q 25.484375 6.203125 34.421875 6.203125 
Q 39.59375 6.203125 44.453125 7.46875 
Q 49.3125 8.734375 54.109375 11.28125 
L 54.109375 2.78125 
Q 49.265625 0.734375 44.1875 -0.34375 
Q 39.109375 -1.421875 33.890625 -1.421875 
Q 20.796875 -1.421875 13.15625 6.1875 
Q 5.515625 13.8125 5.515625 26.8125 
Q 5.515625 40.234375 12.765625 48.109375 
Q 20.015625 56 32.328125 56 
Q 43.359375 56 49.78125 48.890625 
Q 56.203125 41.796875 56.203125 29.59375 
z
M 47.21875 32.234375 
Q 47.125 39.59375 43.09375 43.984375 
Q 39.0625 48.390625 32.421875 48.390625 
Q 24.90625 48.390625 20.390625 44.140625 
Q 15.875 39.890625 15.1875 32.171875 
z
" id="DejaVuSans-101"/>
      <path d="M 45.40625 46.390625 
L 45.40625 75.984375 
L 54.390625 75.984375 
L 54.390625 0 
L 45.40625 0 
L 45.40625 8.203125 
Q 42.578125 3.328125 38.25 0.953125 
Q 33.9375 -1.421875 27.875 -1.421875 
Q 17.96875 -1.421875 11.734375 6.484375 
Q 5.515625 14.40625 5.515625 27.296875 
Q 5.515625 40.1875 11.734375 48.09375 
Q 17.96875 56 27.875 56 
Q 33.9375 56 38.25 53.625 
Q 42.578125 51.265625 45.40625 46.390625 
z
M 14.796875 27.296875 
Q 14.796875 17.390625 18.875 11.75 
Q 22.953125 6.109375 30.078125 6.109375 
Q 37.203125 6.109375 41.296875 11.75 
Q 45.40625 17.390625 45.40625 27.296875 
Q 45.40625 37.203125 41.296875 42.84375 
Q 37.203125 48.484375 30.078125 48.484375 
Q 22.953125 48.484375 18.875 42.84375 
Q 14.796875 37.203125 14.796875 27.296875 
z
" id="DejaVuSans-100"/>
     </defs>
     <use xlink:href="#DejaVuSans-65"/>
     <use x="68.408203" xlink:href="#DejaVuSans-114"/>
     <use x="107.771484" xlink:href="#DejaVuSans-109"/>
     <use x="205.183594" xlink:href="#DejaVuSans-115"/>
     <use x="257.283203" xlink:href="#DejaVuSans-32"/>
     <use x="289.070312" xlink:href="#DejaVuSans-115"/>
     <use x="341.169922" xlink:href="#DejaVuSans-112"/>
     <use x="404.646484" xlink:href="#DejaVuSans-101"/>
     <use x="466.169922" xlink:href="#DejaVuSans-101"/>
     <use x="527.693359" xlink:href="#DejaVuSans-100"/>
    </g>
   </g>
   <g id="legend_1">
    <g id="patch_7">
     <path d="M 61 71.91625 
L 139.478125 71.91625 
Q 141.478125 71.91625 141.478125 69.91625 
L 141.478125 41.56 
Q 141.478125 39.56 139.478125 39.56 
L 61 39.56 
Q 59 39.56 59 41.56 
L 59 69.91625 
Q 59 71.91625 61 71.91625 
z
" style="fill:#ffffff;opacity:0.8;stroke:#cccccc;stroke-linejoin:miter;"/>
    </g>
    <g id="line2d_16">
     <path d="M 63 47.658437 
L 83 47.658437 
" style="fill:none;stroke:#1f77b4;stroke-linecap:square;stroke-width:1.5;"/>
    </g>
    <g id="line2d_17"/>
    <g id="text_15">
     <!-- right arm -->
     <g transform="translate(91 51.158437)scale(0.1 -0.1)">
      <defs>
       <path d="M 9.421875 54.6875 
L 18.40625 54.6875 
L 18.40625 0 
L 9.421875 0 
z
M 9.421875 75.984375 
L 18.40625 75.984375 
L 18.40625 64.59375 
L 9.421875 64.59375 
z
" id="DejaVuSans-105"/>
       <path d="M 45.40625 27.984375 
Q 45.40625 37.75 41.375 43.109375 
Q 37.359375 48.484375 30.078125 48.484375 
Q 22.859375 48.484375 18.828125 43.109375 
Q 14.796875 37.75 14.796875 27.984375 
Q 14.796875 18.265625 18.828125 12.890625 
Q 22.859375 7.515625 30.078125 7.515625 
Q 37.359375 7.515625 41.375 12.890625 
Q 45.40625 18.265625 45.40625 27.984375 
z
M 54.390625 6.78125 
Q 54.390625 -7.171875 48.1875 -13.984375 
Q 42 -20.796875 29.203125 -20.796875 
Q 24.46875 -20.796875 20.265625 -20.09375 
Q 16.0625 -19.390625 12.109375 -17.921875 
L 12.109375 -9.1875 
Q 16.0625 -11.328125 19.921875 -12.34375 
Q 23.78125 -13.375 27.78125 -13.375 
Q 36.625 -13.375 41.015625 -8.765625 
Q 45.40625 -4.15625 45.40625 5.171875 
L 45.40625 9.625 
Q 42.625 4.78125 38.28125 2.390625 
Q 33.9375 0 27.875 0 
Q 17.828125 0 11.671875 7.65625 
Q 5.515625 15.328125 5.515625 27.984375 
Q 5.515625 40.671875 11.671875 48.328125 
Q 17.828125 56 27.875 56 
Q 33.9375 56 38.28125 53.609375 
Q 42.625 51.21875 45.40625 46.390625 
L 45.40625 54.6875 
L 54.390625 54.6875 
z
" id="DejaVuSans-103"/>
       <path d="M 54.890625 33.015625 
L 54.890625 0 
L 45.90625 0 
L 45.90625 32.71875 
Q 45.90625 40.484375 42.875 44.328125 
Q 39.84375 48.1875 33.796875 48.1875 
Q 26.515625 48.1875 22.3125 43.546875 
Q 18.109375 38.921875 18.109375 30.90625 
L 18.109375 0 
L 9.078125 0 
L 9.078125 75.984375 
L 18.109375 75.984375 
L 18.109375 46.1875 
Q 21.34375 51.125 25.703125 53.5625 
Q 30.078125 56 35.796875 56 
Q 45.21875 56 50.046875 50.171875 
Q 54.890625 44.34375 54.890625 33.015625 
z
" id="DejaVuSans-104"/>
       <path d="M 18.3125 70.21875 
L 18.3125 54.6875 
L 36.8125 54.6875 
L 36.8125 47.703125 
L 18.3125 47.703125 
L 18.3125 18.015625 
Q 18.3125 11.328125 20.140625 9.421875 
Q 21.96875 7.515625 27.59375 7.515625 
L 36.8125 7.515625 
L 36.8125 0 
L 27.59375 0 
Q 17.1875 0 13.234375 3.875 
Q 9.28125 7.765625 9.28125 18.015625 
L 9.28125 47.703125 
L 2.6875 47.703125 
L 2.6875 54.6875 
L 9.28125 54.6875 
L 9.28125 70.21875 
z
" id="DejaVuSans-116"/>
       <path d="M 34.28125 27.484375 
Q 23.390625 27.484375 19.1875 25 
Q 14.984375 22.515625 14.984375 16.5 
Q 14.984375 11.71875 18.140625 8.90625 
Q 21.296875 6.109375 26.703125 6.109375 
Q 34.1875 6.109375 38.703125 11.40625 
Q 43.21875 16.703125 43.21875 25.484375 
L 43.21875 27.484375 
z
M 52.203125 31.203125 
L 52.203125 0 
L 43.21875 0 
L 43.21875 8.296875 
Q 40.140625 3.328125 35.546875 0.953125 
Q 30.953125 -1.421875 24.3125 -1.421875 
Q 15.921875 -1.421875 10.953125 3.296875 
Q 6 8.015625 6 15.921875 
Q 6 25.140625 12.171875 29.828125 
Q 18.359375 34.515625 30.609375 34.515625 
L 43.21875 34.515625 
L 43.21875 35.40625 
Q 43.21875 41.609375 39.140625 45 
Q 35.0625 48.390625 27.6875 48.390625 
Q 23 48.390625 18.546875 47.265625 
Q 14.109375 46.140625 10.015625 43.890625 
L 10.015625 52.203125 
Q 14.9375 54.109375 19.578125 55.046875 
Q 24.21875 56 28.609375 56 
Q 40.484375 56 46.34375 49.84375 
Q 52.203125 43.703125 52.203125 31.203125 
z
" id="DejaVuSans-97"/>
      </defs>
      <use xlink:href="#DejaVuSans-114"/>
      <use x="41.113281" xlink:href="#DejaVuSans-105"/>
      <use x="68.896484" xlink:href="#DejaVuSans-103"/>
      <use x="132.373047" xlink:href="#DejaVuSans-104"/>
      <use x="195.751953" xlink:href="#DejaVuSans-116"/>
      <use x="234.960938" xlink:href="#DejaVuSans-32"/>
      <use x="266.748047" xlink:href="#DejaVuSans-97"/>
      <use x="328.027344" xlink:href="#DejaVuSans-114"/>
      <use x="367.390625" xlink:href="#DejaVuSans-109"/>
     </g>
    </g>
    <g id="line2d_18">
     <path d="M 63 62.336562 
L 83 62.336562 
" style="fill:none;stroke:#ff7f0e;stroke-linecap:square;stroke-width:1.5;"/>
    </g>
    <g id="line2d_19"/>
    <g id="text_16">
     <!-- left arm -->
     <g transform="translate(91 65.836562)scale(0.1 -0.1)">
      <defs>
       <path d="M 9.421875 75.984375 
L 18.40625 75.984375 
L 18.40625 0 
L 9.421875 0 
z
" id="DejaVuSans-108"/>
       <path d="M 37.109375 75.984375 
L 37.109375 68.5 
L 28.515625 68.5 
Q 23.6875 68.5 21.796875 66.546875 
Q 19.921875 64.59375 19.921875 59.515625 
L 19.921875 54.6875 
L 34.71875 54.6875 
L 34.71875 47.703125 
L 19.921875 47.703125 
L 19.921875 0 
L 10.890625 0 
L 10.890625 47.703125 
L 2.296875 47.703125 
L 2.296875 54.6875 
L 10.890625 54.6875 
L 10.890625 58.5 
Q 10.890625 67.625 15.140625 71.796875 
Q 19.390625 75.984375 28.609375 75.984375 
z
" id="DejaVuSans-102"/>
      </defs>
      <use xlink:href="#DejaVuSans-108"/>
      <use x="27.783203" xlink:href="#DejaVuSans-101"/>
      <use x="89.306641" xlink:href="#DejaVuSans-102"/>
      <use x="122.761719" xlink:href="#DejaVuSans-116"/>
      <use x="161.970703" xlink:href="#DejaVuSans-32"/>
      <use x="193.757812" xlink:href="#DejaVuSans-97"/>
      <use x="255.037109" xlink:href="#DejaVuSans-114"/>
      <use x="294.400391" xlink:href="#DejaVuSans-109"/>
     </g>
    </g>
   </g>
  </g>
 </g>
 <defs>
  <clipPath id="pdd1c1534d2">
   <rect height="217.44" width="334.8" x="54" y="34.56"/>
  </clipPath>
 </defs>
</svg>
